<?xml version="1.0" encoding="UTF-8"?>
<svg width="400px" height="400px" viewBox="0 0 400 400" version="1.1" xmlns="http://www.w3.org/2000/svg" xmlns:xlink="http://www.w3.org/1999/xlink">
    <!-- Generator: Sketch 50.2 (55047) - http://www.bohemiancoding.com/sketch -->
    <title>bouquet</title>
    <desc>Created with Sketch.</desc>
    <defs></defs>
    <g id="bouquet" stroke="none" stroke-width="1" fill="none" fill-rule="evenodd">
        <g id="Group-2" transform="translate(120.000000, 49.000000)">
            <path d="M81.4867991,298 L85.1122469,298 C85.134743,297.934074 85.1575273,297.866754 85.1805786,297.798088 C85.7705031,296.040783 86.4658094,293.618641 87.1179584,291.024701 L138.40612,87.024701 C139.168856,83.9909003 137.678493,82 134.799523,82 L31.799523,82 C28.9205532,82 27.4301902,83.9909003 28.1929258,87.024701 L79.4810876,291.024701 C80.1332366,293.618641 80.8285429,296.040783 81.4184674,297.798088 C81.4415187,297.866754 81.464303,297.934074 81.4867991,298 Z" id="Rectangle-17" stroke="#979797" stroke-width="8" fill="#D8E0EB"></path>
            <g id="Group" transform="translate(0.000000, 35.000000)" stroke="#979797" stroke-width="4">
                <circle id="Oval-17" fill="#F8B9B9" cx="20.5" cy="11.5" r="11.5"></circle>
                <circle id="Oval-17-Copy" fill="#F8B9B9" cx="43.5" cy="11.5" r="11.5"></circle>
                <circle id="Oval-17-Copy-2" fill="#F8B9B9" cx="49.5" cy="34.5" r="11.5"></circle>
                <circle id="Oval-17-Copy-3" fill="#F8B9B9" cx="11.5" cy="33.5" r="11.5"></circle>
                <circle id="Oval-17-Copy-4" fill="#F8B9B9" cx="30.5" cy="47.5" r="11.5"></circle>
                <circle id="Oval-17-Copy-5" fill="#C2E99A" cx="31.5" cy="27.5" r="11.5"></circle>
            </g>
            <g id="Group-Copy" transform="translate(31.000000, 0.000000)" stroke="#979797" stroke-width="4">
                <circle id="Oval-17" fill="#F8B9B9" cx="20.5" cy="11.5" r="11.5"></circle>
                <circle id="Oval-17-Copy" fill="#F8B9B9" cx="43.5" cy="11.5" r="11.5"></circle>
                <circle id="Oval-17-Copy-2" fill="#F8B9B9" cx="49.5" cy="34.5" r="11.5"></circle>
                <circle id="Oval-17-Copy-3" fill="#F8B9B9" cx="11.5" cy="33.5" r="11.5"></circle>
                <circle id="Oval-17-Copy-4" fill="#F8B9B9" cx="30.5" cy="47.5" r="11.5"></circle>
                <circle id="Oval-17-Copy-5" fill="#C2E99A" cx="31.5" cy="27.5" r="11.5"></circle>
            </g>
            <g id="Group-Copy-2" transform="translate(47.000000, 42.000000)" stroke="#979797" stroke-width="4">
                <circle id="Oval-17" fill="#F8B9B9" cx="20.5" cy="11.5" r="11.5"></circle>
                <circle id="Oval-17-Copy" fill="#F8B9B9" cx="43.5" cy="11.5" r="11.5"></circle>
                <circle id="Oval-17-Copy-2" fill="#F8B9B9" cx="49.5" cy="34.5" r="11.5"></circle>
                <circle id="Oval-17-Copy-3" fill="#F8B9B9" cx="11.5" cy="33.5" r="11.5"></circle>
                <circle id="Oval-17-Copy-4" fill="#F8B9B9" cx="30.5" cy="47.5" r="11.5"></circle>
                <circle id="Oval-17-Copy-5" fill="#C2E99A" cx="31.5" cy="27.5" r="11.5"></circle>
            </g>
            <g id="Group-Copy-3" transform="translate(78.000000, 0.000000)" stroke="#979797" stroke-width="4">
                <circle id="Oval-17" fill="#F8B9B9" cx="20.5" cy="11.5" r="11.5"></circle>
                <circle id="Oval-17-Copy" fill="#F8B9B9" cx="43.5" cy="11.5" r="11.5"></circle>
                <circle id="Oval-17-Copy-2" fill="#F8B9B9" cx="49.5" cy="34.5" r="11.5"></circle>
                <circle id="Oval-17-Copy-3" fill="#F8B9B9" cx="11.5" cy="33.5" r="11.5"></circle>
                <circle id="Oval-17-Copy-4" fill="#F8B9B9" cx="30.5" cy="47.5" r="11.5"></circle>
                <circle id="Oval-17-Copy-5" fill="#C2E99A" cx="31.5" cy="27.5" r="11.5"></circle>
            </g>
            <g id="Group-Copy-4" transform="translate(99.000000, 35.000000)" stroke="#979797" stroke-width="4">
                <circle id="Oval-17" fill="#F8B9B9" cx="20.5" cy="11.5" r="11.5"></circle>
                <circle id="Oval-17-Copy" fill="#F8B9B9" cx="43.5" cy="11.5" r="11.5"></circle>
                <circle id="Oval-17-Copy-2" fill="#F8B9B9" cx="49.5" cy="34.5" r="11.5"></circle>
                <circle id="Oval-17-Copy-3" fill="#F8B9B9" cx="11.5" cy="33.5" r="11.5"></circle>
                <circle id="Oval-17-Copy-4" fill="#F8B9B9" cx="30.5" cy="47.5" r="11.5"></circle>
                <circle id="Oval-17-Copy-5" fill="#C2E99A" cx="31.5" cy="27.5" r="11.5"></circle>
            </g>
            <path d="M46.617512,151 L56.1492649,186 L110.850735,186 L120.382488,151 L46.617512,151 Z" id="Rectangle-18" stroke="#979797" stroke-width="4" fill="#C2E99A"></path>
            <path d="M82.9212104,143.386563 L85.7078072,140.599966 C89.1744263,137.133347 94.7949145,137.133347 98.2615262,140.599959 C101.728138,144.066571 101.728138,149.687059 98.2615262,153.153671 L82.9969893,168.418207 L82.9402747,168.361493 L82.8644957,168.437272 L67.5999588,153.172735 C64.1333471,149.706123 64.1333471,144.085635 67.5999588,140.619023 C71.0665706,137.152411 76.6870588,137.152411 80.1536706,140.619023 L82.9212104,143.386563 Z" id="Combined-Shape-Copy-7" stroke="#D0021B" stroke-width="8" fill="#D0021B"></path>
        </g>
    </g>
</svg>