<?xml version="1.0" encoding="UTF-8"?>
<svg width="400px" height="400px" viewBox="0 0 400 400" version="1.1" xmlns="http://www.w3.org/2000/svg" xmlns:xlink="http://www.w3.org/1999/xlink">
    <!-- Generator: Sketch 50.2 (55047) - http://www.bohemiancoding.com/sketch -->
    <title>butterfly</title>
    <desc>Created with Sketch.</desc>
    <defs></defs>
    <g id="butterfly" stroke="none" stroke-width="1" fill="none" fill-rule="evenodd">
        <g id="Group" transform="translate(92.000000, 127.000000)" fill="#D8E0EB" stroke="#979797" stroke-width="8">
            <path d="M109.85554,148.236708 L82.5328311,175.559418 C81.6299487,176.645434 80.6694337,177.699535 79.651272,178.717696 C61.5670634,196.801905 32.1448784,196.700015 13.9349824,178.490119 C-4.27491349,160.280223 -4.37680319,130.858038 13.7074054,112.77383 C13.7535477,112.727687 13.7997638,112.681663 13.8460533,112.635758 L13.7074054,112.49711 L28.0681983,98.1363172 L13.8068578,83.8749767 L13.9455022,83.7363322 C13.8992161,83.6904233 13.853,83.6443994 13.8068578,83.5982571 C-4.27735087,65.5140485 -4.17546117,36.0918634 14.0344348,17.8819675 C32.2443307,-0.327928426 61.6665157,-0.429818124 79.7507244,17.6543905 C80.768886,18.6725522 81.7294011,19.7266532 82.6322834,20.8126691 L105.697931,43.8783167 L132.921188,16.6550597 C133.82407,15.5690438 134.784585,14.5149428 135.802747,13.4967811 C153.886956,-4.58742753 183.309141,-4.48553783 201.519037,13.7243581 C219.728933,31.934254 219.830822,61.3564391 201.746614,79.4406477 C201.700471,79.48679 201.654255,79.5328139 201.607966,79.5787193 L201.746614,79.7173673 L187.485273,93.9787078 L201.846066,108.339501 L201.707418,108.478148 C201.753708,108.524054 201.799924,108.570078 201.846066,108.61622 C219.930275,126.700429 219.828385,156.122614 201.618489,174.33251 C183.408593,192.542406 153.986408,192.644295 135.902199,174.560087 C134.884038,173.541925 133.923523,172.487824 133.02064,171.401808 L109.85554,148.236708 Z" id="Combined-Shape"></path>
        </g>
        <path d="M200.5,153.5 L210,96" id="Line-4-Copy" stroke="#D0021B" stroke-width="8" stroke-linecap="square"></path>
        <path d="M199.5,153.5 L179,96" id="Line-4" stroke="#D0021B" stroke-width="8" stroke-linecap="square"></path>
        <ellipse id="Oval-4" fill="#F8B9B9" cx="200" cy="220.5" rx="13" ry="86.5"></ellipse>
        <ellipse id="Oval-5" fill="#D0021B" cx="176.5" cy="88" rx="10.5" ry="8"></ellipse>
        <ellipse id="Oval-5-Copy" fill="#D0021B" cx="210.5" cy="88" rx="10.5" ry="8"></ellipse>
        <path d="M189.477273,175 L209.522727,175" id="Line-6" stroke="#D0021B" stroke-width="2" stroke-linecap="square"></path>
        <path d="M189.477273,184 L211,184" id="Line-6-Copy" stroke="#D0021B" stroke-width="2" stroke-linecap="square"></path>
        <path d="M188.477273,193 L211,193" id="Line-6-Copy-2" stroke="#D0021B" stroke-width="2" stroke-linecap="square"></path>
        <path d="M188.477273,202 L212,202" id="Line-6-Copy-3" stroke="#D0021B" stroke-width="2" stroke-linecap="square"></path>
        <path d="M188,211 L212,211" id="Line-6-Copy-4" stroke="#D0021B" stroke-width="2" stroke-linecap="square"></path>
        <path d="M188,220 L212,220" id="Line-6-Copy-5" stroke="#D0021B" stroke-width="2" stroke-linecap="square"></path>
        <path d="M188,229 L212,229" id="Line-6-Copy-6" stroke="#D0021B" stroke-width="2" stroke-linecap="square"></path>
        <path d="M188,238 L212,238" id="Line-6-Copy-7" stroke="#D0021B" stroke-width="2" stroke-linecap="square"></path>
        <path d="M189,247 L211,247" id="Line-6-Copy-8" stroke="#D0021B" stroke-width="2" stroke-linecap="square"></path>
        <path d="M189,256 L211,256" id="Line-6-Copy-9" stroke="#D0021B" stroke-width="2" stroke-linecap="square"></path>
        <path d="M190,265 L210,265" id="Line-6-Copy-10" stroke="#D0021B" stroke-width="2" stroke-linecap="square"></path>
        <path d="M191,274 L209,274" id="Line-6-Copy-11" stroke="#D0021B" stroke-width="2" stroke-linecap="square"></path>
        <path d="M192,283 L208,283" id="Line-6-Copy-12" stroke="#D0021B" stroke-width="2" stroke-linecap="square"></path>
        <path d="M194,292 L206,292" id="Line-6-Copy-13" stroke="#D0021B" stroke-width="2" stroke-linecap="square"></path>
        <path d="M143.090204,171.55573 C143.479392,170.399707 144.134485,169.313498 145.055482,168.392501 C148.245483,165.2025 153.417498,165.2025 156.607499,168.392501 C159.7975,171.582502 159.7975,176.754517 156.607499,179.944518 C155.686502,180.865515 154.600292,181.520608 153.444269,181.909796 L153.991056,182.456582 L142.439039,194.008599 L128.392501,179.962061 C125.2025,176.77206 125.2025,171.600046 128.392501,168.410044 C131.582502,165.220043 136.754517,165.220043 139.944518,168.410044 L143.090204,171.55573 Z" id="Combined-Shape-Copy" stroke="#D0021B" stroke-width="8" fill="#D0021B"></path>
        <path d="M143.090204,259.55573 C143.479392,258.399707 144.134485,257.313498 145.055482,256.392501 C148.245483,253.2025 153.417498,253.2025 156.607499,256.392501 C159.7975,259.582502 159.7975,264.754517 156.607499,267.944518 C155.686502,268.865515 154.600292,269.520608 153.444269,269.909796 L153.991056,270.456582 L142.439039,282.008599 L128.392501,267.962061 C125.2025,264.77206 125.2025,259.600046 128.392501,256.410044 C131.582502,253.220043 136.754517,253.220043 139.944518,256.410044 L143.090204,259.55573 Z" id="Combined-Shape-Copy-2" stroke="#D0021B" stroke-width="8" fill="#D0021B"></path>
        <path d="M261.090204,259.55573 C261.479392,258.399707 262.134485,257.313498 263.055482,256.392501 C266.245483,253.2025 271.417498,253.2025 274.607499,256.392501 C277.7975,259.582502 277.7975,264.754517 274.607499,267.944518 C273.686502,268.865515 272.600292,269.520608 271.444269,269.909796 L271.991056,270.456582 L260.439039,282.008599 L246.392501,267.962061 C243.2025,264.77206 243.2025,259.600046 246.392501,256.410044 C249.582502,253.220043 254.754517,253.220043 257.944518,256.410044 L261.090204,259.55573 Z" id="Combined-Shape-Copy-3" stroke="#D0021B" stroke-width="8" fill="#D0021B"></path>
        <path d="M261.090204,171.55573 C261.479392,170.399707 262.134485,169.313498 263.055482,168.392501 C266.245483,165.2025 271.417498,165.2025 274.607499,168.392501 C277.7975,171.582502 277.7975,176.754517 274.607499,179.944518 C273.686502,180.865515 272.600292,181.520608 271.444269,181.909796 L271.991056,182.456582 L260.439039,194.008599 L246.392501,179.962061 C243.2025,176.77206 243.2025,171.600046 246.392501,168.410044 C249.582502,165.220043 254.754517,165.220043 257.944518,168.410044 L261.090204,171.55573 Z" id="Combined-Shape-Copy-5" stroke="#D0021B" stroke-width="8" fill="#D0021B"></path>
    </g>
</svg>