<?xml version="1.0" encoding="UTF-8"?>
<svg width="400px" height="400px" viewBox="0 0 400 400" version="1.1" xmlns="http://www.w3.org/2000/svg" xmlns:xlink="http://www.w3.org/1999/xlink">
    <!-- Generator: Sketch 50.2 (55047) - http://www.bohemiancoding.com/sketch -->
    <title>calendar</title>
    <desc>Created with Sketch.</desc>
    <defs></defs>
    <g id="calendar" stroke="none" stroke-width="1" fill="none" fill-rule="evenodd">
        <rect id="Rectangle-5" stroke="#979797" stroke-width="8" fill="#D8E0EB" x="69" y="142" width="262" height="182"></rect>
        <rect id="Rectangle" stroke="#979797" stroke-width="8" fill="#F8B9B9" x="69" y="95" width="262" height="48"></rect>
        <rect id="Rectangle-6" stroke="#979797" fill="#979797" x="112.5" y="73.5" width="21" height="45" rx="8"></rect>
        <rect id="Rectangle-6-Copy" stroke="#979797" fill="#979797" x="267.5" y="73.5" width="21" height="45" rx="8"></rect>
        <path d="M118.671875,162.953125 L104.960938,162.953125 L104.960938,171.742188 L116.421875,171.742188 C117.48438,171.742188 118.277341,171.980466 118.800781,172.457031 C119.324221,172.933596 119.585938,173.570309 119.585938,174.367188 C119.585938,175.164066 119.320315,175.796873 118.789062,176.265625 C118.25781,176.734377 117.468755,176.96875 116.421875,176.96875 L104.960938,176.96875 L104.960938,188.289062 C104.960938,189.72657 104.636722,190.792965 103.988281,191.488281 C103.339841,192.183597 102.507818,192.53125 101.492188,192.53125 C100.460932,192.53125 99.621097,192.179691 98.9726562,191.476562 C98.3242155,190.773434 98,189.710945 98,188.289062 L98,161.851562 C98,160.851558 98.148436,160.035159 98.4453125,159.402344 C98.742189,158.769528 99.2070281,158.308595 99.8398438,158.019531 C100.472659,157.730467 101.281245,157.585938 102.265625,157.585938 L118.671875,157.585938 C119.781256,157.585938 120.605466,157.832029 121.144531,158.324219 C121.683596,158.816409 121.953125,159.460934 121.953125,160.257812 C121.953125,161.070317 121.683596,161.722654 121.144531,162.214844 C120.605466,162.707034 119.781256,162.953125 118.671875,162.953125 Z M142.71875,181.09375 L130.203125,181.09375 C130.21875,182.546882 130.511716,183.828119 131.082031,184.9375 C131.652347,186.046881 132.410152,186.88281 133.355469,187.445312 C134.300786,188.007815 135.343744,188.289062 136.484375,188.289062 C137.250004,188.289062 137.949216,188.19922 138.582031,188.019531 C139.214847,187.839843 139.828122,187.558596 140.421875,187.175781 C141.015628,186.792967 141.562498,186.382815 142.0625,185.945312 C142.562502,185.50781 143.210934,184.914066 144.007812,184.164062 C144.335939,183.882811 144.804684,183.742188 145.414062,183.742188 C146.070316,183.742188 146.60156,183.921873 147.007812,184.28125 C147.414065,184.640627 147.617188,185.148434 147.617188,185.804688 C147.617188,186.382815 147.390627,187.05859 146.9375,187.832031 C146.484373,188.605473 145.800786,189.347653 144.886719,190.058594 C143.972652,190.769535 142.824226,191.359373 141.441406,191.828125 C140.058587,192.296877 138.468759,192.53125 136.671875,192.53125 C132.562479,192.53125 129.367199,191.359387 127.085938,189.015625 C124.804676,186.671863 123.664062,183.492208 123.664062,179.476562 C123.664062,177.585928 123.94531,175.832039 124.507812,174.214844 C125.070315,172.597648 125.89062,171.210943 126.96875,170.054688 C128.04688,168.898432 129.374992,168.011722 130.953125,167.394531 C132.531258,166.777341 134.28124,166.46875 136.203125,166.46875 C138.703137,166.46875 140.847647,166.996088 142.636719,168.050781 C144.42579,169.105474 145.765621,170.468742 146.65625,172.140625 C147.546879,173.812508 147.992188,175.515616 147.992188,177.25 C147.992188,178.859383 147.531255,179.902341 146.609375,180.378906 C145.687495,180.855471 144.390633,181.09375 142.71875,181.09375 Z M130.203125,177.460938 L141.804688,177.460938 C141.648437,175.273427 141.058599,173.636724 140.035156,172.550781 C139.011714,171.464838 137.664071,170.921875 135.992188,170.921875 C134.39843,170.921875 133.089849,171.472651 132.066406,172.574219 C131.042964,173.675787 130.421876,175.304677 130.203125,177.460938 Z M158.65625,160.65625 L158.65625,170.429688 C159.859381,169.179681 161.085931,168.22266 162.335938,167.558594 C163.585944,166.894528 165.132803,166.5625 166.976562,166.5625 C169.101573,166.5625 170.964836,167.066401 172.566406,168.074219 C174.167977,169.082036 175.410152,170.542959 176.292969,172.457031 C177.175786,174.371103 177.617188,176.640612 177.617188,179.265625 C177.617188,181.203135 177.371096,182.980461 176.878906,184.597656 C176.386716,186.214852 175.67188,187.617182 174.734375,188.804688 C173.79687,189.992193 172.660163,190.910153 171.324219,191.558594 C169.988275,192.207034 168.515633,192.53125 166.90625,192.53125 C165.92187,192.53125 164.996098,192.414064 164.128906,192.179688 C163.261714,191.945311 162.523441,191.636721 161.914062,191.253906 C161.304684,190.871092 160.785158,190.476565 160.355469,190.070312 C159.925779,189.66406 159.359379,189.054692 158.65625,188.242188 L158.65625,188.875 C158.65625,190.078131 158.36719,190.988278 157.789062,191.605469 C157.210935,192.222659 156.476567,192.53125 155.585938,192.53125 C154.679683,192.53125 153.957034,192.222659 153.417969,191.605469 C152.878904,190.988278 152.609375,190.078131 152.609375,188.875 L152.609375,160.9375 C152.609375,159.640619 152.871091,158.66016 153.394531,157.996094 C153.917971,157.332028 154.648433,157 155.585938,157 C156.570317,157 157.328122,157.316403 157.859375,157.949219 C158.390628,158.582034 158.65625,159.484369 158.65625,160.65625 Z M158.960938,179.664062 C158.960938,182.21095 159.542963,184.167962 160.707031,185.535156 C161.8711,186.902351 163.398428,187.585938 165.289062,187.585938 C166.898446,187.585938 168.28515,186.886726 169.449219,185.488281 C170.613287,184.089837 171.195312,182.085951 171.195312,179.476562 C171.195312,177.789054 170.953127,176.335944 170.46875,175.117188 C169.984373,173.898431 169.296879,172.957035 168.40625,172.292969 C167.515621,171.628903 166.476568,171.296875 165.289062,171.296875 C164.070306,171.296875 162.98438,171.628903 162.03125,172.292969 C161.07812,172.957035 160.328128,173.917962 159.78125,175.175781 C159.234372,176.4336 158.960938,177.929679 158.960938,179.664062 Z M189.101562,183.296875 L189.101562,188.640625 C189.101562,189.937506 188.796878,190.910153 188.1875,191.558594 C187.578122,192.207034 186.804692,192.53125 185.867188,192.53125 C184.945308,192.53125 184.187503,192.203128 183.59375,191.546875 C182.999997,190.890622 182.703125,189.921881 182.703125,188.640625 L182.703125,170.828125 C182.703125,167.953111 183.742177,166.515625 185.820312,166.515625 C186.882818,166.515625 187.648435,166.851559 188.117188,167.523438 C188.58594,168.195316 188.84375,169.187493 188.890625,170.5 C189.656254,169.187493 190.441402,168.195316 191.246094,167.523438 C192.050785,166.851559 193.124993,166.515625 194.46875,166.515625 C195.812507,166.515625 197.117181,166.851559 198.382812,167.523438 C199.648444,168.195316 200.28125,169.085932 200.28125,170.195312 C200.28125,170.976566 200.011721,171.621091 199.472656,172.128906 C198.933591,172.636721 198.351566,172.890625 197.726562,172.890625 C197.492186,172.890625 196.925786,172.746095 196.027344,172.457031 C195.128902,172.167967 194.335941,172.023438 193.648438,172.023438 C192.710933,172.023438 191.945315,172.269529 191.351562,172.761719 C190.75781,173.253909 190.296877,173.98437 189.96875,174.953125 C189.640623,175.92188 189.414063,177.074212 189.289062,178.410156 C189.164062,179.7461 189.101562,181.37499 189.101562,183.296875 Z M219.195312,188.921875 L219.195312,188.101562 C218.429684,189.070317 217.625004,189.882809 216.78125,190.539062 C215.937496,191.195316 215.01563,191.683592 214.015625,192.003906 C213.01562,192.32422 211.875006,192.484375 210.59375,192.484375 C209.046867,192.484375 207.660162,192.164066 206.433594,191.523438 C205.207025,190.882809 204.257816,190.000006 203.585938,188.875 C202.789059,187.515618 202.390625,185.562513 202.390625,183.015625 L202.390625,170.335938 C202.390625,169.054681 202.679685,168.097659 203.257812,167.464844 C203.83594,166.832028 204.601558,166.515625 205.554688,166.515625 C206.523442,166.515625 207.304685,166.835934 207.898438,167.476562 C208.49219,168.117191 208.789062,169.070306 208.789062,170.335938 L208.789062,180.578125 C208.789062,182.062507 208.914061,183.308589 209.164062,184.316406 C209.414064,185.324224 209.863278,186.113278 210.511719,186.683594 C211.160159,187.253909 212.039057,187.539062 213.148438,187.539062 C214.226568,187.539062 215.242183,187.218753 216.195312,186.578125 C217.148442,185.937497 217.843748,185.101568 218.28125,184.070312 C218.640627,183.164058 218.820312,181.179703 218.820312,178.117188 L218.820312,170.335938 C218.820312,169.070306 219.117185,168.117191 219.710938,167.476562 C220.30469,166.835934 221.07812,166.515625 222.03125,166.515625 C222.98438,166.515625 223.749997,166.832028 224.328125,167.464844 C224.906253,168.097659 225.195312,169.054681 225.195312,170.335938 L225.195312,188.875 C225.195312,190.093756 224.917972,191.007809 224.363281,191.617188 C223.808591,192.226566 223.093754,192.53125 222.21875,192.53125 C221.343746,192.53125 220.621097,192.214847 220.050781,191.582031 C219.480466,190.949216 219.195312,190.062506 219.195312,188.921875 Z M247.742188,188.921875 C246.195305,190.125006 244.699226,191.027341 243.253906,191.628906 C241.808587,192.230472 240.187509,192.53125 238.390625,192.53125 C236.749992,192.53125 235.3086,192.207034 234.066406,191.558594 C232.824213,190.910153 231.867191,190.031256 231.195312,188.921875 C230.523434,187.812494 230.1875,186.609381 230.1875,185.3125 C230.1875,183.562491 230.742182,182.070319 231.851562,180.835938 C232.960943,179.601556 234.484365,178.77344 236.421875,178.351562 C236.828127,178.257812 237.835929,178.046877 239.445312,177.71875 C241.054696,177.390623 242.433588,177.089845 243.582031,176.816406 C244.730474,176.542967 245.976556,176.210939 247.320312,175.820312 C247.242187,174.132804 246.902347,172.894535 246.300781,172.105469 C245.699216,171.316402 244.453134,170.921875 242.5625,170.921875 C240.937492,170.921875 239.714848,171.148435 238.894531,171.601562 C238.074215,172.05469 237.371097,172.73437 236.785156,173.640625 C236.199216,174.54688 235.785157,175.14453 235.542969,175.433594 C235.30078,175.722658 234.781254,175.867188 233.984375,175.867188 C233.265621,175.867188 232.644534,175.636721 232.121094,175.175781 C231.597654,174.714841 231.335938,174.125004 231.335938,173.40625 C231.335938,172.281244 231.734371,171.187505 232.53125,170.125 C233.328129,169.062495 234.570304,168.187503 236.257812,167.5 C237.945321,166.812497 240.046862,166.46875 242.5625,166.46875 C245.375014,166.46875 247.585929,166.800778 249.195312,167.464844 C250.804696,168.12891 251.941403,169.17968 252.605469,170.617188 C253.269535,172.054695 253.601562,173.960926 253.601562,176.335938 C253.601562,177.835945 253.597656,179.10937 253.589844,180.15625 C253.582031,181.20313 253.570313,182.367181 253.554688,183.648438 C253.554688,184.851569 253.753904,186.105462 254.152344,187.410156 C254.550783,188.71485 254.75,189.554686 254.75,189.929688 C254.75,190.585941 254.441409,191.183591 253.824219,191.722656 C253.207028,192.261721 252.507816,192.53125 251.726562,192.53125 C251.070309,192.53125 250.421878,192.222659 249.78125,191.605469 C249.140622,190.988278 248.460941,190.093756 247.742188,188.921875 Z M247.320312,179.664062 C246.382808,180.007814 245.01954,180.371092 243.230469,180.753906 C241.441397,181.136721 240.203128,181.417968 239.515625,181.597656 C238.828122,181.777345 238.171878,182.128904 237.546875,182.652344 C236.921872,183.175784 236.609375,183.906245 236.609375,184.84375 C236.609375,185.812505 236.976559,186.636715 237.710938,187.316406 C238.445316,187.996097 239.406244,188.335938 240.59375,188.335938 C241.859381,188.335938 243.027338,188.058597 244.097656,187.503906 C245.167974,186.949216 245.953123,186.234379 246.453125,185.359375 C247.031253,184.39062 247.320312,182.796886 247.320312,180.578125 L247.320312,179.664062 Z M266.445312,183.296875 L266.445312,188.640625 C266.445312,189.937506 266.140628,190.910153 265.53125,191.558594 C264.921872,192.207034 264.148442,192.53125 263.210938,192.53125 C262.289058,192.53125 261.531253,192.203128 260.9375,191.546875 C260.343747,190.890622 260.046875,189.921881 260.046875,188.640625 L260.046875,170.828125 C260.046875,167.953111 261.085927,166.515625 263.164062,166.515625 C264.226568,166.515625 264.992185,166.851559 265.460938,167.523438 C265.92969,168.195316 266.1875,169.187493 266.234375,170.5 C267.000004,169.187493 267.785152,168.195316 268.589844,167.523438 C269.394535,166.851559 270.468743,166.515625 271.8125,166.515625 C273.156257,166.515625 274.460931,166.851559 275.726562,167.523438 C276.992194,168.195316 277.625,169.085932 277.625,170.195312 C277.625,170.976566 277.355471,171.621091 276.816406,172.128906 C276.277341,172.636721 275.695316,172.890625 275.070312,172.890625 C274.835936,172.890625 274.269536,172.746095 273.371094,172.457031 C272.472652,172.167967 271.679691,172.023438 270.992188,172.023438 C270.054683,172.023438 269.289065,172.269529 268.695312,172.761719 C268.10156,173.253909 267.640627,173.98437 267.3125,174.953125 C266.984373,175.92188 266.757813,177.074212 266.632812,178.410156 C266.507812,179.7461 266.445312,181.37499 266.445312,183.296875 Z M287.023438,193.328125 L287.609375,191.898438 L279.734375,172.070312 C279.249998,170.929682 279.007812,170.101565 279.007812,169.585938 C279.007812,169.03906 279.148436,168.531252 279.429688,168.0625 C279.710939,167.593748 280.097654,167.218751 280.589844,166.9375 C281.082034,166.656249 281.593747,166.515625 282.125,166.515625 C283.04688,166.515625 283.742185,166.808591 284.210938,167.394531 C284.67969,167.980472 285.093748,168.820307 285.453125,169.914062 L290.867188,185.664062 L296,171.015625 C296.406252,169.828119 296.773436,168.898441 297.101562,168.226562 C297.429689,167.554684 297.777342,167.101564 298.144531,166.867188 C298.511721,166.632811 299.031247,166.515625 299.703125,166.515625 C300.187502,166.515625 300.652342,166.64453 301.097656,166.902344 C301.542971,167.160158 301.886718,167.50781 302.128906,167.945312 C302.371095,168.382815 302.492188,168.843748 302.492188,169.328125 C302.429687,169.625001 302.328126,170.046872 302.1875,170.59375 C302.046874,171.140628 301.875001,171.69531 301.671875,172.257812 L293.328125,194.101562 C292.609371,196.023447 291.906253,197.531245 291.21875,198.625 C290.531247,199.718755 289.621099,200.558591 288.488281,201.144531 C287.355463,201.730472 285.828135,202.023438 283.90625,202.023438 C282.031241,202.023438 280.625005,201.820315 279.6875,201.414062 C278.749995,201.00781 278.28125,200.26563 278.28125,199.1875 C278.28125,198.453121 278.503904,197.886721 278.949219,197.488281 C279.394533,197.089842 280.054683,196.890625 280.929688,196.890625 C281.273439,196.890625 281.609373,196.9375 281.9375,197.03125 C282.343752,197.125 282.695311,197.171875 282.992188,197.171875 C283.726566,197.171875 284.304685,197.062501 284.726562,196.84375 C285.14844,196.624999 285.527342,196.246096 285.863281,195.707031 C286.19922,195.167966 286.585935,194.375005 287.023438,193.328125 Z" id="February" fill="#D0021B"></path>
        <path d="M156.596803,300.854098 L156.596803,242.896213 C145.811911,251.175952 138.551326,255.31576 134.814828,255.31576 C133.0315,255.31576 131.449881,254.604562 130.069924,253.182145 C128.689968,251.759728 128,250.11442 128,248.246171 C128,246.080701 128.679353,244.488467 130.038079,243.469423 C131.396806,242.450378 133.795771,241.134131 137.235048,239.520644 C142.372732,237.100412 146.480695,234.552838 149.559059,231.877846 C152.637424,229.202853 155.365451,226.209454 157.743222,222.897558 C160.120994,219.585662 161.670768,217.547603 162.392591,216.78332 C163.114414,216.019036 164.473121,215.6369 166.46875,215.6369 C168.719141,215.6369 170.523672,216.507321 171.882399,218.248189 C173.241125,219.989057 173.920478,222.388023 173.920478,225.445157 L173.920478,298.370188 C173.920478,306.904689 171.011998,311.171875 165.19495,311.171875 C162.604878,311.171875 160.524359,310.301454 158.953332,308.560586 C157.382305,306.819717 156.596803,304.250914 156.596803,300.854098 Z M242.96042,301.490998 L242.96042,289.644661 L210.988048,289.644661 C206.954329,289.644661 203.929085,288.73178 201.912226,286.905991 C199.895366,285.080203 198.886952,282.596318 198.886952,279.454263 C198.886952,278.647519 199.03556,277.830173 199.332781,277.002199 C199.630003,276.174225 200.075828,275.303804 200.670271,274.39091 C201.264714,273.478015 201.880378,272.596979 202.517281,271.747775 C203.154184,270.898571 203.939686,269.858312 204.87381,268.626966 L238.629501,223.470768 C240.837432,220.498554 242.652578,218.343731 244.074995,217.006234 C245.497412,215.668738 247.206409,215 249.202038,215 C255.655989,215 258.882916,218.693982 258.882916,226.082057 L258.882916,275.378104 L261.621585,275.378104 C264.891021,275.378104 267.512899,275.82393 269.487298,276.715594 C271.461698,277.607258 272.448882,279.560398 272.448882,282.575072 C272.448882,285.037764 271.642151,286.831681 270.028663,287.956876 C268.415175,289.082071 265.99498,289.644661 262.768005,289.644661 L258.882916,289.644661 L258.882916,301.490998 C258.882916,304.760433 258.161103,307.191243 256.717457,308.783501 C255.27381,310.375758 253.3419,311.171875 250.921668,311.171875 C248.543897,311.171875 246.622601,310.354528 245.157725,308.719811 C243.692848,307.085093 242.96042,304.675513 242.96042,301.490998 Z M215.573727,275.378104 L242.96042,275.378104 L242.96042,238.374224 L215.573727,275.378104 Z" id="14" fill="#D0021B"></path>
    </g>
</svg>