<?xml version="1.0" encoding="UTF-8"?>
<svg width="400px" height="400px" viewBox="0 0 400 400" version="1.1" xmlns="http://www.w3.org/2000/svg" xmlns:xlink="http://www.w3.org/1999/xlink">
    <!-- Generator: Sketch 50.2 (55047) - http://www.bohemiancoding.com/sketch -->
    <title>candle</title>
    <desc>Created with Sketch.</desc>
    <defs></defs>
    <g id="candle" stroke="none" stroke-width="1" fill="none" fill-rule="evenodd">
        <g id="Group" transform="translate(110.000000, 89.000000)" stroke-width="8">
            <path d="M89.5,55.5 L89.5,35.5" id="Line-17" stroke="#979797" stroke-linecap="square"></path>
            <ellipse id="Oval-18-Copy-2" stroke="#D8E0EB" cx="116.5" cy="115" rx="27.5" ry="27"></ellipse>
            <ellipse id="Oval-18" stroke="#979797" cx="119.5" cy="115" rx="31.5" ry="31"></ellipse>
            <ellipse id="Oval-18-Copy" stroke="#979797" cx="117.5" cy="115" rx="19.5" ry="19"></ellipse>
            <rect id="Rectangle-16" stroke="#979797" fill="#C2E99A" x="67" y="60" width="48" height="124" rx="5"></rect>
            <path d="M4.88140402,180 L11.4964955,213 L169.503505,213 L176.118596,180 L4.88140402,180 Z" id="Rectangle-15" stroke="#979797" fill="#D8E0EB"></path>
            <path d="M89.6126148,6.19551609 L92.8177107,2.99042022 C96.8049377,-0.996806741 103.26951,-0.996806741 107.256737,2.99042022 C111.243964,6.97764719 111.243964,13.4422194 107.256737,17.4294463 L89.6997743,34.9864089 L89.6345422,34.9211768 L89.5473828,35.0083363 L71.9904202,17.4513737 C68.0031933,13.4641467 68.0031933,6.99957455 71.9904202,3.01234758 C75.9776472,-0.974879378 82.4422194,-0.974879378 86.4294463,3.01234758 L89.6126148,6.19551609 Z" id="Combined-Shape-Copy-8" stroke="#D0021B" fill="#D0021B"></path>
        </g>
    </g>
</svg>