<?xml version="1.0" encoding="UTF-8"?>
<svg width="400px" height="400px" viewBox="0 0 400 400" version="1.1" xmlns="http://www.w3.org/2000/svg" xmlns:xlink="http://www.w3.org/1999/xlink">
    <!-- Generator: Sketch 50.2 (55047) - http://www.bohemiancoding.com/sketch -->
    <title>champagne</title>
    <desc>Created with Sketch.</desc>
    <defs></defs>
    <g id="champagne" stroke="none" stroke-width="1" fill="none" fill-rule="evenodd">
        <g id="Group-2" transform="translate(103.000000, 71.000000)">
            <g id="Group" transform="translate(51.963971, 149.048756) rotate(14.000000) translate(-51.963971, -149.048756) translate(24.463971, 44.548756)">
                <path d="M0,36 L55,36 L55,84.5 C55,99.6878306 42.6878306,112 27.5,112 L27.5,112 C12.3121694,112 1.85997282e-15,99.6878306 0,84.5 L0,36 Z" id="Rectangle-8-Copy" fill="#F8B9B9"></path>
                <path d="M4,4 L4,84.5 C4,97.4786916 14.5213084,108 27.5,108 C40.4786916,108 51,97.4786916 51,84.5 L51,4 L4,4 Z" id="Rectangle-8" stroke="#979797" stroke-width="8"></path>
                <path d="M26.5,112.5 L26.5,202.5" id="Line-9" stroke="#979797" stroke-width="8" stroke-linecap="square"></path>
                <path d="M5.5,207.5 L47.5,207.5" id="Line-10" stroke="#979797" stroke-width="8" stroke-linecap="square"></path>
            </g>
            <g id="Group-Copy" transform="translate(152.775961, 149.310273) rotate(-8.000000) translate(-152.775961, -149.310273) translate(125.275961, 44.810273)">
                <path d="M0,36 L55,36 L55,84.5 C55,99.6878306 42.6878306,112 27.5,112 L27.5,112 C12.3121694,112 1.85997282e-15,99.6878306 0,84.5 L0,36 Z" id="Rectangle-8-Copy" fill="#F8B9B9"></path>
                <path d="M4,4 L4,84.5 C4,97.4786916 14.5213084,108 27.5,108 C40.4786916,108 51,97.4786916 51,84.5 L51,4 L4,4 Z" id="Rectangle-8" stroke="#979797" stroke-width="8"></path>
                <path d="M26.5,112.5 L26.5,202.5" id="Line-9" stroke="#979797" stroke-width="8" stroke-linecap="square"></path>
                <path d="M5.5,207.5 L47.5,207.5" id="Line-10" stroke="#979797" stroke-width="8" stroke-linecap="square"></path>
            </g>
            <circle id="Oval-11" fill="#D0021B" cx="84.5" cy="18.5" r="7.5"></circle>
            <circle id="Oval-11-Copy" fill="#D0021B" cx="101.5" cy="32.5" r="5.5"></circle>
            <circle id="Oval-11-Copy-2" fill="#D0021B" cx="105.5" cy="9.5" r="9.5"></circle>
            <circle id="Oval-11-Copy-3" fill="#D0021B" cx="118.5" cy="26.5" r="7.5"></circle>
        </g>
    </g>
</svg>