<?xml version="1.0" encoding="UTF-8"?>
<svg width="400px" height="400px" viewBox="0 0 400 400" version="1.1" xmlns="http://www.w3.org/2000/svg" xmlns:xlink="http://www.w3.org/1999/xlink">
    <!-- Generator: Sketch 50.2 (55047) - http://www.bohemiancoding.com/sketch -->
    <title>chocolate</title>
    <desc>Created with Sketch.</desc>
    <defs>
        <path d="M68.9791065,0 L114,0 L114,213 L0,213 L0,53.4217059 C10.3254393,51.2091018 18,42.9054505 18,33 C18,32.9984469 17.9999998,32.9968939 17.9999994,32.9953409 C18.1662476,32.9984419 18.3329202,33 18.5,33 C31.4786916,33 42,23.5979797 42,12 C42,11.4597962 41.9771745,10.9243564 41.9323383,10.3944088 C44.416226,11.4288376 47.141412,12 50,12 C58.3771879,12 65.6087147,7.094842 68.9791065,-2.22044605e-16 Z" id="path-1"></path>
    </defs>
    <g id="chocolate" stroke="none" stroke-width="1" fill="none" fill-rule="evenodd">
        <g id="Group-2" transform="translate(143.000000, 94.000000)">
            <mask id="mask-2" fill="white">
                <use xlink:href="#path-1"></use>
            </mask>
            <g id="Combined-Shape"></g>
            <g id="Group" mask="url(#mask-2)" stroke="#6E3E10" stroke-width="8">
                <g transform="translate(2.000000, 1.000000)">
                    <rect id="Rectangle-13" fill="#DDAC88" fill-rule="evenodd" x="4" y="4" width="103" height="204" rx="20"></rect>
                    <path d="M21.5,6 L21.5,205.5" id="Line-15" fill="none" stroke-linecap="square"></path>
                    <path d="M42.5,6 L42.5,205.5" id="Line-15-Copy" fill="none" stroke-linecap="square"></path>
                    <path d="M65.5,6 L65.5,205.5" id="Line-15-Copy-2" fill="none" stroke-linecap="square"></path>
                    <path d="M89.5,6 L89.5,205.5" id="Line-15-Copy-4" fill="none" stroke-linecap="square"></path>
                    <path d="M5,28 L107,28" id="Line-16" fill="none" stroke-linecap="square"></path>
                    <path d="M5,52 L107,52" id="Line-16-Copy" fill="none" stroke-linecap="square"></path>
                    <path d="M5,76 L107,76" id="Line-16-Copy-2" fill="none" stroke-linecap="square"></path>
                    <path d="M5,100 L107,100" id="Line-16-Copy-3" fill="none" stroke-linecap="square"></path>
                    <path d="M5,124 L107,124" id="Line-16-Copy-4" fill="none" stroke-linecap="square"></path>
                    <path d="M5,148 L107,148" id="Line-16-Copy-5" fill="none" stroke-linecap="square"></path>
                </g>
            </g>
            <path d="M42.8190356,102.804181 C42.8231449,102.947734 42.8392588,103.137723 42.8731878,103.37115 C43.0246943,104.413494 43.3421263,105.471103 44.2871997,108.236399 C44.37638,108.497426 44.4139848,108.607675 44.4663028,108.761667 C45.6034455,112.108707 46.103186,114.016841 46.1771448,116.108908 C46.3013123,119.621224 44.8334186,122.542122 41.5728078,124.040744 C38.3019335,125.544084 34.9827654,125.760646 25.4836466,125.726587 C23.7064929,125.720215 22.8936023,125.719238 21.8986594,125.725021 C11.6227068,125.784745 6.67714073,127.01204 5.77611679,129.544124 C2.68552081,138.22941 2.68552081,159.476658 5.98787094,192.603211 L6.00767535,192.801873 L6.00759948,193.00152 C6.00424192,201.837483 13.1640377,209 22,209 L93,209 C101.835962,209 108.995758,201.837483 108.992401,193.00152 L108.959428,106.229172 C97.2456268,111.360824 87.446103,114.151977 79.4824913,114.568752 C74.5249194,114.828206 70.6771514,113.241119 60.4981125,107.876831 C59.9962895,107.612374 59.6479365,107.429127 59.2996422,107.246585 C49.9565762,102.349851 45.4003624,101.068124 42.8190356,102.804181 Z" id="Rectangle-14" stroke="#979797" stroke-width="8" fill="#F8B9B9" mask="url(#mask-2)"></path>
            <path d="M42.765625,162.648438 C42.765625,163.742193 42.4960964,164.925775 41.9570312,166.199219 C41.4179661,167.472663 40.5703183,168.72265 39.4140625,169.949219 C38.2578067,171.175787 36.781259,172.171871 34.984375,172.9375 C33.187491,173.703129 31.093762,174.085938 28.703125,174.085938 C26.8906159,174.085938 25.2421949,173.914064 23.7578125,173.570312 C22.2734301,173.226561 20.9257873,172.69141 19.7148438,171.964844 C18.5039002,171.238278 17.3906301,170.281256 16.375,169.09375 C15.4687455,168.01562 14.6953157,166.8086 14.0546875,165.472656 C13.4140593,164.136712 12.9335954,162.710945 12.6132812,161.195312 C12.2929671,159.67968 12.1328125,158.070321 12.1328125,156.367188 C12.1328125,153.601549 12.5351522,151.125011 13.3398438,148.9375 C14.1445353,146.749989 15.2968675,144.878914 16.796875,143.324219 C18.2968825,141.769523 20.0546774,140.585942 22.0703125,139.773438 C24.0859476,138.960933 26.2343636,138.554688 28.515625,138.554688 C31.2968889,138.554688 33.7734266,139.109369 35.9453125,140.21875 C38.1171984,141.328131 39.7812442,142.699211 40.9375,144.332031 C42.0937558,145.964852 42.671875,147.507805 42.671875,148.960938 C42.671875,149.757816 42.3906278,150.460934 41.828125,151.070312 C41.2656222,151.679691 40.5859415,151.984375 39.7890625,151.984375 C38.898433,151.984375 38.230471,151.77344 37.7851562,151.351562 C37.3398415,150.929685 36.8437527,150.20313 36.296875,149.171875 C35.3906205,147.468741 34.3242249,146.195317 33.0976562,145.351562 C31.8710876,144.507808 30.359384,144.085938 28.5625,144.085938 C25.7031107,144.085938 23.4257897,145.171864 21.7304688,147.34375 C20.0351478,149.515636 19.1875,152.601542 19.1875,156.601562 C19.1875,159.273451 19.5624963,161.496085 20.3125,163.269531 C21.0625037,165.042978 22.1249931,166.367183 23.5,167.242188 C24.8750069,168.117192 26.4843658,168.554688 28.328125,168.554688 C30.328135,168.554688 32.0195243,168.058599 33.4023438,167.066406 C34.7851632,166.074214 35.8281215,164.617197 36.53125,162.695312 C36.8281265,161.789058 37.1953103,161.050784 37.6328125,160.480469 C38.0703147,159.910153 38.7734327,159.625 39.7421875,159.625 C40.5703166,159.625 41.281247,159.91406 41.875,160.492188 C42.468753,161.070315 42.765625,161.789058 42.765625,162.648438 Z M54.8359375,142.445312 L54.8359375,151.9375 C55.6484416,150.999995 56.4414024,150.257815 57.2148438,149.710938 C57.9882851,149.16406 58.8437453,148.753908 59.78125,148.480469 C60.7187547,148.20703 61.7265571,148.070312 62.8046875,148.070312 C64.4296956,148.070312 65.8710875,148.414059 67.1289062,149.101562 C68.386725,149.789066 69.3749964,150.789056 70.09375,152.101562 C70.5468773,152.867191 70.8515617,153.722652 71.0078125,154.667969 C71.1640633,155.613286 71.2421875,156.703119 71.2421875,157.9375 L71.2421875,170.195312 C71.2421875,171.476569 70.9492217,172.445309 70.3632812,173.101562 C69.7773408,173.757816 69.0000048,174.085938 68.03125,174.085938 C65.9218645,174.085938 64.8671875,172.789075 64.8671875,170.195312 L64.8671875,159.390625 C64.8671875,157.34374 64.562503,155.769537 63.953125,154.667969 C63.343747,153.566401 62.1875085,153.015625 60.484375,153.015625 C59.3437443,153.015625 58.3164108,153.339841 57.4023438,153.988281 C56.4882767,154.636722 55.8046898,155.523432 55.3515625,156.648438 C55.0078108,157.601567 54.8359375,159.296863 54.8359375,161.734375 L54.8359375,170.195312 C54.8359375,171.460944 54.5507841,172.425778 53.9804688,173.089844 C53.4101534,173.75391 52.6171926,174.085938 51.6015625,174.085938 C49.492177,174.085938 48.4375,172.789075 48.4375,170.195312 L48.4375,142.445312 C48.4375,141.148431 48.714841,140.175784 49.2695312,139.527344 C49.8242215,138.878903 50.6015575,138.554688 51.6015625,138.554688 C52.6171926,138.554688 53.4101534,138.882809 53.9804688,139.539062 C54.5507841,140.195316 54.8359375,141.164056 54.8359375,142.445312 Z M101.523438,161.078125 C101.523438,162.984385 101.226565,164.742179 100.632812,166.351562 C100.03906,167.960946 99.1796931,169.343744 98.0546875,170.5 C96.9296819,171.656256 95.5859453,172.542966 94.0234375,173.160156 C92.4609297,173.777347 90.7031348,174.085938 88.75,174.085938 C86.8124903,174.085938 85.0703202,173.773441 83.5234375,173.148438 C81.9765548,172.523434 80.6367244,171.628912 79.5039062,170.464844 C78.3710881,169.300775 77.5117217,167.925789 76.9257812,166.339844 C76.3398408,164.753898 76.046875,163.00001 76.046875,161.078125 C76.046875,159.140615 76.343747,157.367196 76.9375,155.757812 C77.531253,154.148429 78.382807,152.773443 79.4921875,151.632812 C80.601568,150.492182 81.9453046,149.613284 83.5234375,148.996094 C85.1015704,148.378903 86.8437405,148.070312 88.75,148.070312 C90.6875097,148.070312 92.4453046,148.382809 94.0234375,149.007812 C95.6015704,149.632816 96.9531194,150.523432 98.078125,151.679688 C99.2031306,152.835943 100.058591,154.21093 100.644531,155.804688 C101.230472,157.398445 101.523438,159.15624 101.523438,161.078125 Z M95.1015625,161.078125 C95.1015625,158.468737 94.5273495,156.437507 93.3789062,154.984375 C92.230463,153.531243 90.6875097,152.804688 88.75,152.804688 C87.4999938,152.804688 86.3984423,153.128903 85.4453125,153.777344 C84.4921827,154.425784 83.7578151,155.382806 83.2421875,156.648438 C82.7265599,157.914069 82.46875,159.390617 82.46875,161.078125 C82.46875,162.750008 82.7226537,164.210931 83.2304688,165.460938 C83.7382838,166.710944 84.464839,167.667965 85.4101562,168.332031 C86.3554735,168.996097 87.4687436,169.328125 88.75,169.328125 C90.6875097,169.328125 92.230463,168.597664 93.3789062,167.136719 C94.5273495,165.675774 95.1015625,163.656263 95.1015625,161.078125 Z" id="Cho" fill="#979797" mask="url(#mask-2)" transform="translate(56.828125, 156.320312) rotate(-90.000000) translate(-56.828125, -156.320312) "></path>
        </g>
    </g>
</svg>