<?xml version="1.0" encoding="UTF-8"?>
<svg width="400px" height="400px" viewBox="0 0 400 400" version="1.1" xmlns="http://www.w3.org/2000/svg" xmlns:xlink="http://www.w3.org/1999/xlink">
    <!-- Generator: Sketch 50.2 (55047) - http://www.bohemiancoding.com/sketch -->
    <title>double-heart</title>
    <desc>Created with Sketch.</desc>
    <defs></defs>
    <g id="double-heart" stroke="none" stroke-width="1" fill="none" fill-rule="evenodd">
        <path d="M200,128.069171 L218.142162,109.927009 C240.711507,87.3576637 277.303646,87.3576637 299.872991,109.927009 C322.442336,132.496354 322.442336,169.088493 299.872991,191.657838 L200.493358,291.037471 L200.124118,290.668231 L199.63076,291.161589 L100.251127,191.781956 C77.6817816,169.212611 77.6817816,132.620472 100.251127,110.051127 C122.820472,87.4817816 159.412611,87.4817816 181.981956,110.051127 L200,128.069171 Z" id="Combined-Shape-Copy" stroke="#D0021B" stroke-width="8" fill="#F8B9B9"></path>
        <path d="M272.961256,204.357196 L284.255659,193.062793 L284.280877,193.088011 C284.28927,193.079602 284.297668,193.071196 284.306071,193.062793 C298.396513,178.972351 321.260196,178.990913 335.373535,193.104253 C349.486875,207.217592 349.505437,230.081275 335.414995,244.171717 C335.031819,244.554893 334.642156,244.927635 334.246356,245.289943 L273.320118,306.216181 L273.038744,305.934808 L272.679882,306.29367 L211.753644,245.367432 C211.357844,245.005124 210.968181,244.632382 210.585005,244.249206 C196.494563,230.158764 196.513125,207.295081 210.626465,193.181742 C224.739804,179.068402 247.603487,179.04984 261.693929,193.140282 C261.702332,193.148685 261.71073,193.157091 261.719123,193.1655 L261.744341,193.140282 L272.961256,204.357196 Z" id="Combined-Shape-Copy-2" stroke="#D0021B" stroke-width="8" fill="#D0021B"></path>
    </g>
</svg>