<?xml version="1.0" encoding="UTF-8"?>
<svg width="400px" height="400px" viewBox="0 0 400 400" version="1.1" xmlns="http://www.w3.org/2000/svg" xmlns:xlink="http://www.w3.org/1999/xlink">
    <!-- Generator: Sketch 50.2 (55047) - http://www.bohemiancoding.com/sketch -->
    <title>flower-pot</title>
    <desc>Created with Sketch.</desc>
    <defs></defs>
    <g id="flower-pot" stroke="none" stroke-width="1" fill="none" fill-rule="evenodd">
        <path d="M151,136 L183.34,269.412281" id="Line-2" stroke="#C2E99A" stroke-width="8" stroke-linecap="square"></path>
        <path d="M198.277701,110.033613 L198.277701,242" id="Line-2-Copy" stroke="#C2E99A" stroke-width="8" stroke-linecap="square"></path>
        <path d="M245.628209,148 L219.961457,282.975304" id="Line-2-Copy-2" stroke="#C2E99A" stroke-width="8" stroke-linecap="square"></path>
        <g id="Group" transform="translate(135.303335, 215.000000)" stroke="#979797" stroke-width="8">
            <path d="M4.85089774,4 L23.6589984,100.915302 L105.332885,100.915302 L124.140986,4 L4.85089774,4 Z" id="Rectangle-3" fill="#D8E0EB"></path>
            <rect id="Rectangle-4" fill="#D8D8D8" x="6.63248742" y="104.200008" width="117.043153" height="1.43058894"></rect>
        </g>
        <ellipse id="Oval-3" fill="#C2E99A" cx="151.80765" cy="180.662354" rx="12.5043153" ry="7.66235352"></ellipse>
        <ellipse id="Oval-3-Copy" fill="#C2E99A" cx="184.80765" cy="159.490601" rx="12.5043153" ry="9.49060059"></ellipse>
        <ellipse id="Oval-3-Copy-2" fill="#C2E99A" cx="251.80765" cy="185.490601" rx="12.5043153" ry="9.49060059"></ellipse>
        <path d="M146.254316,106.168707 C146.843995,104.417157 147.836559,102.771386 149.232009,101.375936 C154.065345,96.5426003 161.90173,96.5426003 166.735066,101.375936 C171.568401,106.209271 171.568401,114.045656 166.735066,118.878992 C165.339615,120.274442 163.693844,121.267007 161.942293,121.856686 L162.770759,122.68515 L145.267702,140.188206 L123.985069,118.905572 C119.151733,114.072237 119.151733,106.235852 123.985069,101.402516 C128.818404,96.5691807 136.65479,96.5691807 141.488125,101.402516 L146.254316,106.168707 Z" id="Combined-Shape-Copy" stroke="#D0021B" stroke-width="8" fill="#D0021B" transform="translate(145.360067, 118.969570) rotate(-15.000000) translate(-145.360067, -118.969570) "></path>
        <path d="M199.894249,83.4177728 C200.483928,81.6662229 201.476492,80.0204518 202.871942,78.6250016 C207.705278,73.7916661 215.541663,73.7916661 220.374998,78.6250016 C225.208334,83.4583371 225.208334,91.2947223 220.374998,96.1280578 C218.979548,97.5235082 217.333776,98.5160729 215.582226,99.1057518 L216.410691,99.9342156 L198.907635,117.437272 L177.625002,96.1546382 C172.791666,91.3213027 172.791666,83.4849176 177.625002,78.6515821 C182.458337,73.8182466 190.294722,73.8182466 195.128058,78.6515821 L199.894249,83.4177728 Z" id="Combined-Shape-Copy-4" stroke="#D0021B" stroke-width="8" fill="#D0021B"></path>
        <path d="M253.643765,118.688636 C254.233444,116.937086 255.226009,115.291315 256.621459,113.895865 C261.454794,109.062529 269.291179,109.062529 274.124515,113.895865 C278.95785,118.7292 278.95785,126.565586 274.124515,131.398921 C272.729064,132.794371 271.083293,133.786936 269.331743,134.376615 L270.160208,135.205079 L252.657152,152.708135 L231.374518,131.425501 C226.541183,126.592166 226.541183,118.755781 231.374518,113.922445 C236.207854,109.08911 244.044239,109.08911 248.877574,113.922445 L253.643765,118.688636 Z" id="Combined-Shape-Copy-5" stroke="#D0021B" stroke-width="8" fill="#D0021B" transform="translate(252.749516, 131.489499) rotate(20.000000) translate(-252.749516, -131.489499) "></path>
    </g>
</svg>