<?xml version="1.0" encoding="UTF-8"?>
<svg width="400px" height="400px" viewBox="0 0 400 400" version="1.1" xmlns="http://www.w3.org/2000/svg" xmlns:xlink="http://www.w3.org/1999/xlink">
    <!-- Generator: Sketch 50.2 (55047) - http://www.bohemiancoding.com/sketch -->
    <title>free-space</title>
    <desc>Created with Sketch.</desc>
    <defs></defs>
    <g id="free-space" stroke="none" stroke-width="1" fill="none" fill-rule="evenodd">
        <path d="M78.8085938,48.5 C84.1523705,48.8750019 89.144508,49.0625 93.7851562,49.0625 C98.2383035,49.0625 104.554647,48.2187584 112.734375,46.53125 C120.914103,44.8437416 126.878887,44 130.628906,44 C134.285175,44 137.167958,44.9374906 139.277344,46.8125 C141.386729,48.6875094 142.441406,51.4062322 142.441406,54.96875 C142.441406,58.6718935 140.835954,62.6679473 137.625,66.9570312 C134.414046,71.2461152 131.027362,73.390625 127.464844,73.390625 C124.230453,73.390625 121.675791,72.5351648 119.800781,70.8242188 C117.925772,69.1132727 116.988281,67.1796983 116.988281,65.0234375 C116.988281,63.2890538 118.089833,61.3906353 120.292969,59.328125 C122.496105,57.2656147 124.464835,56.234375 126.199219,56.234375 C127.46485,56.234375 128.624995,56.7968694 129.679688,57.921875 C130.73438,59.0468806 131.261719,60.1249948 131.261719,61.15625 C131.261719,63.9218888 130.089855,65.3046875 127.746094,65.3046875 C127.042965,61.5546688 125.707041,59.6796875 123.738281,59.6796875 C122.894527,59.6796875 122.132816,59.9960906 121.453125,60.6289062 C120.773434,61.2617219 120.433594,61.9999958 120.433594,62.84375 C120.433594,64.250007 121.300773,65.9492088 123.035156,67.9414062 C124.76954,69.9336037 126.503898,70.9296875 128.238281,70.9296875 C131.00392,70.9296875 133.207023,69.5937634 134.847656,66.921875 C136.488289,64.2499866 137.308594,61.1797048 137.308594,57.7109375 C137.308594,55.601552 136.417978,53.750008 134.636719,52.15625 C132.85546,50.562492 130.324235,49.765625 127.042969,49.765625 C121.605442,49.765625 112.628969,50.4453057 100.113281,51.8046875 C101.097661,73.4610458 101.589844,88.8124548 101.589844,97.859375 C114.433658,97.859375 125.519485,96.710949 134.847656,94.4140625 L134.425781,99.8984375 C121.722593,101.44532 110.824264,102.21875 101.730469,102.21875 L102.292969,136.742188 C108.808626,136.742188 115.136688,135.593761 121.277344,133.296875 L121.277344,138.21875 C112.839802,139.343756 105.972683,139.90625 100.675781,139.90625 C98.2851443,139.90625 94.8867408,140.398433 90.4804688,141.382812 L90.4804688,137.164062 L98.8476562,136.882812 C96.7851459,102.757642 92.9414344,74.445425 87.3164062,51.9453125 L78.8085938,51.6640625 L78.8085938,48.5 Z M160.722656,89.2109375 C162.644541,82.7421552 165.351545,77.7968921 168.84375,74.375 C172.335955,70.9531079 175.886701,69.2421875 179.496094,69.2421875 C182.964861,69.2421875 185.941394,70.6601421 188.425781,73.4960938 C190.910169,76.3320454 192.152344,79.7890421 192.152344,83.8671875 C192.152344,88.6484614 190.746108,92.5390475 187.933594,95.5390625 C185.12108,98.5390775 181.488304,100.039062 177.035156,100.039062 C174.73827,100.039062 172.792977,99.1484464 171.199219,97.3671875 C169.605461,95.5859286 168.808594,93.4531374 168.808594,90.96875 C168.808594,89.7499939 169.851552,88.2382903 171.9375,86.4335938 C174.023448,84.6288972 175.72265,83.7265625 177.035156,83.7265625 C178.910166,83.7265625 180.527337,84.1718705 181.886719,85.0625 C183.246101,85.9531295 183.925781,87.1953045 183.925781,88.7890625 C183.925781,90.5703214 182.355484,91.8124965 179.214844,92.515625 C179.777347,91.109368 180.058594,89.960942 180.058594,89.0703125 C180.058594,87.2421784 179.425788,86.328125 178.160156,86.328125 C177.082026,86.328125 176.167972,86.9843684 175.417969,88.296875 C174.667965,89.6093816 174.292969,90.9218684 174.292969,92.234375 C174.292969,93.4531311 174.820307,94.6484316 175.875,95.8203125 C176.929693,96.9921934 178.042963,97.578125 179.214844,97.578125 C182.40236,97.578125 184.921866,96.4414176 186.773438,94.1679688 C188.625009,91.8945199 189.550781,89.0468921 189.550781,85.625 C189.550781,83.1874878 188.44923,81.0898525 186.246094,79.3320312 C184.042958,77.57421 181.53517,76.6953125 178.722656,76.6953125 C175.816392,76.6953125 173.167981,77.4570236 170.777344,78.9804688 C168.386707,80.5039139 166.171885,83.210918 164.132812,87.1015625 C162.09374,90.992207 161.074219,93.4296826 161.074219,94.4140625 C161.074219,95.1640663 161.964835,108.312372 163.746094,133.859375 C169.464872,132.124991 174.667945,129.781265 179.355469,126.828125 L180.199219,130.273438 C174.949193,132.898451 170.074241,134.96093 165.574219,136.460938 C161.074196,137.960945 155.332066,139.156246 148.347656,140.046875 L148.347656,136.460938 C152.472677,136.460938 156.457012,135.92188 160.300781,134.84375 C160.300781,129.874975 159.187511,121.296936 156.960938,109.109375 C154.734364,96.9218141 152.355481,86.6562917 149.824219,78.3125 L139.839844,81.8984375 L139.136719,79.578125 C148.230514,77.2343633 155.472629,73.5781498 160.863281,68.609375 C160.58203,72.5937699 160.441406,75.33593 160.441406,76.8359375 C160.441406,80.9609581 160.535155,85.0859169 160.722656,89.2109375 Z M236.800781,121.484375 C239.003917,121.484375 240.105469,122.539052 240.105469,124.648438 C240.105469,126.007819 239.507818,127.167964 238.3125,128.128906 C237.117182,129.089849 235.980474,129.570312 234.902344,129.570312 C233.542962,129.570312 232.148445,128.914069 230.71875,127.601562 C229.289055,126.289056 228.574219,124.671885 228.574219,122.75 C228.574219,120.078112 229.441398,117.980476 231.175781,116.457031 C232.910165,114.933586 235.066393,114.171875 237.644531,114.171875 C240.738297,114.171875 243.316396,115.261708 245.378906,117.441406 C247.441417,119.621105 248.472656,122.398421 248.472656,125.773438 C248.472656,129.757832 246.72658,132.921863 243.234375,135.265625 C239.74217,137.609387 235.910177,138.78125 231.738281,138.78125 C224.144493,138.78125 217.089876,135.628938 210.574219,129.324219 C204.058561,123.0195 200.800781,115.367233 200.800781,106.367188 C200.800781,97.8827701 203.964812,90.1719097 210.292969,83.234375 C216.621125,76.2968403 223.347621,72.828125 230.472656,72.828125 C235.816433,72.828125 240.773415,74.5976386 245.34375,78.1367188 C249.914085,81.6757989 252.199219,85.3671683 252.199219,89.2109375 C252.199219,93.9922114 250.242207,97.9062348 246.328125,100.953125 C242.414043,104.000015 237.503936,105.523438 231.597656,105.523438 C225.878878,105.523438 221.472672,104.72657 218.378906,103.132812 C215.285141,101.539055 213.738281,99.3125143 213.738281,96.453125 C213.738281,93.8749871 214.699209,91.7656332 216.621094,90.125 C218.542978,88.4843668 220.558583,87.6640625 222.667969,87.6640625 C224.542978,87.6640625 226.24218,88.1445264 227.765625,89.1054688 C229.28907,90.0664111 230.050781,91.2031184 230.050781,92.515625 C230.050781,93.921882 229.523443,95.2343689 228.46875,96.453125 C227.414057,97.6718811 226.394536,98.28125 225.410156,98.28125 C223.488272,98.28125 222.527344,97.6250066 222.527344,96.3125 C224.73048,95.703122 225.832031,94.648445 225.832031,93.1484375 C225.832031,91.9765566 225.41016,91.0507846 224.566406,90.3710938 C223.722652,89.6914029 222.71485,89.3515625 221.542969,89.3515625 C220.699215,89.3515625 219.902347,90.0429618 219.152344,91.4257812 C218.40234,92.8086007 218.027344,94.2265552 218.027344,95.6796875 C218.027344,97.7421978 219.492173,99.5117114 222.421875,100.988281 C225.351577,102.464851 228.902323,103.203125 233.074219,103.203125 C236.636737,103.203125 239.402334,102.125011 241.371094,99.96875 C243.339854,97.8124892 244.324219,94.9062683 244.324219,91.25 C244.324219,87.453106 242.894546,83.8203298 240.035156,80.3515625 C237.175767,76.8827952 233.660177,75.1484375 229.488281,75.1484375 C224.28513,75.1484375 219.855487,78.0663771 216.199219,83.9023438 C212.54295,89.7383104 210.714844,97.6483876 210.714844,107.632812 C210.714844,115.882854 212.812479,122.703098 217.007812,128.09375 C221.203146,133.484402 226.371063,136.179688 232.511719,136.179688 C235.371108,136.179688 238.218736,135.183604 241.054688,133.191406 C243.890639,131.199209 245.308594,128.679703 245.308594,125.632812 C245.308594,123.570302 244.300791,121.812507 242.285156,120.359375 C240.269521,118.906243 238.066418,118.179688 235.675781,118.179688 C234.363275,118.179688 233.238286,118.601558 232.300781,119.445312 C231.363277,120.289067 230.894531,121.296869 230.894531,122.46875 C230.894531,124.484385 232.089832,125.492188 234.480469,125.492188 C235.183597,125.492188 235.746092,125.058598 236.167969,124.191406 C236.589846,123.324214 236.800781,122.42188 236.800781,121.484375 Z M297.410156,121.484375 C299.613292,121.484375 300.714844,122.539052 300.714844,124.648438 C300.714844,126.007819 300.117193,127.167964 298.921875,128.128906 C297.726557,129.089849 296.589849,129.570312 295.511719,129.570312 C294.152337,129.570312 292.75782,128.914069 291.328125,127.601562 C289.89843,126.289056 289.183594,124.671885 289.183594,122.75 C289.183594,120.078112 290.050773,117.980476 291.785156,116.457031 C293.51954,114.933586 295.675768,114.171875 298.253906,114.171875 C301.347672,114.171875 303.925771,115.261708 305.988281,117.441406 C308.050792,119.621105 309.082031,122.398421 309.082031,125.773438 C309.082031,129.757832 307.335955,132.921863 303.84375,135.265625 C300.351545,137.609387 296.519552,138.78125 292.347656,138.78125 C284.753868,138.78125 277.699251,135.628938 271.183594,129.324219 C264.667936,123.0195 261.410156,115.367233 261.410156,106.367188 C261.410156,97.8827701 264.574187,90.1719097 270.902344,83.234375 C277.2305,76.2968403 283.956996,72.828125 291.082031,72.828125 C296.425808,72.828125 301.38279,74.5976386 305.953125,78.1367188 C310.52346,81.6757989 312.808594,85.3671683 312.808594,89.2109375 C312.808594,93.9922114 310.851582,97.9062348 306.9375,100.953125 C303.023418,104.000015 298.113311,105.523438 292.207031,105.523438 C286.488253,105.523438 282.082047,104.72657 278.988281,103.132812 C275.894516,101.539055 274.347656,99.3125143 274.347656,96.453125 C274.347656,93.8749871 275.308584,91.7656332 277.230469,90.125 C279.152353,88.4843668 281.167958,87.6640625 283.277344,87.6640625 C285.152353,87.6640625 286.851555,88.1445264 288.375,89.1054688 C289.898445,90.0664111 290.660156,91.2031184 290.660156,92.515625 C290.660156,93.921882 290.132818,95.2343689 289.078125,96.453125 C288.023432,97.6718811 287.003911,98.28125 286.019531,98.28125 C284.097647,98.28125 283.136719,97.6250066 283.136719,96.3125 C285.339855,95.703122 286.441406,94.648445 286.441406,93.1484375 C286.441406,91.9765566 286.019535,91.0507846 285.175781,90.3710938 C284.332027,89.6914029 283.324225,89.3515625 282.152344,89.3515625 C281.30859,89.3515625 280.511723,90.0429618 279.761719,91.4257812 C279.011715,92.8086007 278.636719,94.2265552 278.636719,95.6796875 C278.636719,97.7421978 280.101548,99.5117114 283.03125,100.988281 C285.960952,102.464851 289.511698,103.203125 293.683594,103.203125 C297.246112,103.203125 300.011709,102.125011 301.980469,99.96875 C303.949229,97.8124892 304.933594,94.9062683 304.933594,91.25 C304.933594,87.453106 303.503921,83.8203298 300.644531,80.3515625 C297.785142,76.8827952 294.269552,75.1484375 290.097656,75.1484375 C284.894505,75.1484375 280.464862,78.0663771 276.808594,83.9023438 C273.152325,89.7383104 271.324219,97.6483876 271.324219,107.632812 C271.324219,115.882854 273.421854,122.703098 277.617188,128.09375 C281.812521,133.484402 286.980438,136.179688 293.121094,136.179688 C295.980483,136.179688 298.828111,135.183604 301.664062,133.191406 C304.500014,131.199209 305.917969,128.679703 305.917969,125.632812 C305.917969,123.570302 304.910166,121.812507 302.894531,120.359375 C300.878896,118.906243 298.675793,118.179688 296.285156,118.179688 C294.97265,118.179688 293.847661,118.601558 292.910156,119.445312 C291.972652,120.289067 291.503906,121.296869 291.503906,122.46875 C291.503906,124.484385 292.699207,125.492188 295.089844,125.492188 C295.792972,125.492188 296.355467,125.058598 296.777344,124.191406 C297.199221,123.324214 297.410156,122.42188 297.410156,121.484375 Z M83.5546875,247.515625 C82.4296819,246.953122 81.3750049,246.671875 80.390625,246.671875 C79.0781184,246.671875 78.421875,248.17186 78.421875,251.171875 C78.421875,252.156255 78.8789017,253.070308 79.7929688,253.914062 C80.7070358,254.757817 81.7265569,255.179688 82.8515625,255.179688 C87.1640841,255.179688 89.3203125,251.38285 89.3203125,243.789062 C89.3203125,240.742172 88.1132933,238.10548 85.6992188,235.878906 C83.2851442,233.652333 80.4609537,232.539062 77.2265625,232.539062 C72.9140409,232.539062 69.1757971,234.167952 66.0117188,237.425781 C62.8476404,240.68361 61.265625,244.351542 61.265625,248.429688 C61.265625,251.757829 62.5078001,255.027328 64.9921875,258.238281 C67.4765749,261.449235 72.4687125,265.09373 79.96875,269.171875 C87.4687875,273.25002 92.8124841,276.367177 96,278.523438 C99.1875159,280.679698 101.89452,283.304672 104.121094,286.398438 C106.347667,289.492203 107.460938,293.054667 107.460938,297.085938 C107.460938,304.63285 104.050815,311.839809 97.2304688,318.707031 C90.4101221,325.574253 82.8750412,329.007812 74.625,329.007812 C68.62497,329.007812 63.3867411,326.687523 58.9101562,322.046875 C54.4335714,317.406227 52.1953125,312.015656 52.1953125,305.875 C52.1953125,300.9531 54.3632596,296.50002 58.6992188,292.515625 C63.0351779,288.53123 67.499977,286.539062 72.09375,286.539062 C76.3593963,286.539062 79.7929557,287.558584 82.3945312,289.597656 C84.9961068,291.636729 86.296875,294.36717 86.296875,297.789062 C86.296875,301.398456 84.8320459,304.539049 81.9023438,307.210938 C78.9726416,309.882826 75.6328312,311.21875 71.8828125,311.21875 C70.2890545,311.21875 68.964849,310.644537 67.9101562,309.496094 C66.8554635,308.347651 66.328125,307.046882 66.328125,305.59375 C66.328125,304.140618 66.8671821,302.957036 67.9453125,302.042969 C69.0234429,301.128902 70.4062416,300.671875 72.09375,300.671875 C73.4062566,300.671875 74.3437472,301.210932 74.90625,302.289062 C72.4218626,303.039066 71.1796875,303.929682 71.1796875,304.960938 C71.1796875,307.585951 72.374988,308.898438 74.765625,308.898438 C76.6406344,308.898438 78.1757753,307.902354 79.3710938,305.910156 C80.5664122,303.917959 81.1640625,301.796886 81.1640625,299.546875 C81.1640625,296.687486 80.1796973,294.214854 78.2109375,292.128906 C76.2421777,290.042958 73.8515766,289 71.0390625,289 C67.335919,289 64.4882912,290.71092 62.4960938,294.132812 C60.5038963,297.554705 59.5078125,302.031222 59.5078125,307.5625 C59.5078125,312.57815 61.0898279,316.902326 64.2539062,320.535156 C67.4179846,324.167987 71.3202893,325.984375 75.9609375,325.984375 C83.1797236,325.984375 89.3554431,323.464869 94.4882812,318.425781 C99.6211194,313.386694 102.1875,306.742229 102.1875,298.492188 C102.1875,294.695294 101.07423,291.472669 98.8476562,288.824219 C96.6210826,286.175768 93.8789225,283.984384 90.6210938,282.25 C87.363265,280.515616 82.8984659,278.500011 77.2265625,276.203125 C71.5546591,273.906239 66.9726737,271.832041 63.4804688,269.980469 C59.9882638,268.128897 57.0351683,265.70314 54.6210938,262.703125 C52.2070192,259.70311 51,256.046897 51,251.734375 C51,245.78122 53.6601296,240.742208 58.9804688,236.617188 C64.3008079,232.492167 70.5234019,230.429688 77.6484375,230.429688 C82.2422105,230.429688 86.1327966,231.542958 89.3203125,233.769531 C92.5078284,235.996105 94.1015625,238.914044 94.1015625,242.523438 C94.1015625,246.601583 93.0351669,250.093735 90.9023438,253 C88.7695206,255.906265 85.9453301,257.359375 82.4296875,257.359375 C79.7109239,257.359375 77.3671973,256.761725 75.3984375,255.566406 C73.4296777,254.371088 72.4453125,252.765635 72.4453125,250.75 C72.4453125,249.062492 73.0429628,247.527351 74.2382812,246.144531 C75.4335997,244.761712 76.9687406,244.070312 78.84375,244.070312 C81.9843907,244.070312 83.5546875,245.218739 83.5546875,247.515625 Z M147.046875,277.46875 C147.046875,276.48437 147.234373,275.804689 147.609375,275.429688 C147.984377,275.054686 148.804681,274.867188 150.070312,274.867188 C151.054692,274.867188 152.238274,275.640617 153.621094,277.1875 C155.003913,278.734383 155.695312,279.882809 155.695312,280.632812 C155.695312,282.601572 154.523449,284.441398 152.179688,286.152344 C149.835926,287.86329 147.515636,288.71875 145.21875,288.71875 C142.546862,288.71875 140.460945,287.875008 138.960938,286.1875 C137.46093,284.499992 136.710938,282.273451 136.710938,279.507812 C136.710938,277.0703 138.386702,274.32814 141.738281,271.28125 C145.089861,268.23436 148.359359,266.710938 151.546875,266.710938 C159.421914,266.710938 165.785132,269.289037 170.636719,274.445312 C175.488306,279.601588 177.914062,286.234334 177.914062,294.34375 C177.914062,300.812532 174.796906,307.035126 168.5625,313.011719 C162.328094,318.988311 154.781294,321.976562 145.921875,321.976562 C140.812474,321.976562 135.679713,319.328151 130.523438,314.03125 C129.632808,325.281306 129.1875,334.281216 129.1875,341.03125 C129.1875,345.203146 129.351561,348.835922 129.679688,351.929688 C132.679702,351.695311 136.031231,350.875007 139.734375,349.46875 L140.15625,353.546875 C135.093725,354.671881 131.062515,355.234375 128.0625,355.234375 C126.09374,355.234375 122.015656,355.468748 115.828125,355.9375 L115.96875,352.914062 C121.734404,352.539061 125.390617,352.351562 126.9375,352.351562 C125.109366,338.851495 124.195312,322.445409 124.195312,303.132812 C124.195312,286.304603 124.968742,273.765666 126.515625,265.515625 C124.265614,265.843752 120.023469,266.898429 113.789062,268.679688 L113.226562,265.65625 C121.851606,263.874991 129.820276,261.531265 137.132812,258.625 C135.304678,264.484404 133.816412,273.378847 132.667969,285.308594 C131.519526,297.238341 130.945312,305.195293 130.945312,309.179688 C135.539085,315.601595 141.304653,318.8125 148.242188,318.8125 C153.304713,318.8125 157.87498,316.269557 161.953125,311.183594 C166.03127,306.097631 168.070312,300.296908 168.070312,293.78125 C168.070312,286.79684 166.476578,280.914086 163.289062,276.132812 C160.101547,271.351539 156.375021,268.960938 152.109375,268.960938 C149.343736,268.960938 146.953135,270.015614 144.9375,272.125 C142.921865,274.234386 141.914062,276.835922 141.914062,279.929688 C141.914062,281.617196 142.429682,283.140618 143.460938,284.5 C144.492193,285.859382 145.54687,286.539062 146.625,286.539062 C147.937507,286.539062 148.992184,286.011724 149.789062,284.957031 C150.585941,283.902338 150.984375,282.671882 150.984375,281.265625 C150.984375,278.734362 149.671888,277.46875 147.046875,277.46875 Z M204.703125,281.546875 C204.374998,283.46876 203.273447,284.429688 201.398438,284.429688 C200.367182,284.429688 199.523441,284.06641 198.867188,283.339844 C198.210934,282.613278 197.882812,281.664068 197.882812,280.492188 C197.882812,279.132806 198.480463,277.855475 199.675781,276.660156 C200.8711,275.464838 202.148431,274.867188 203.507812,274.867188 C209.835969,274.867188 213,276.695294 213,280.351562 C213,283.398453 211.382829,286.199206 208.148438,288.753906 C204.914046,291.308607 202.125012,292.585938 199.78125,292.585938 C197.015611,292.585938 194.671885,291.800789 192.75,290.230469 C190.828115,288.660148 189.867188,286.562513 189.867188,283.9375 C189.867188,278.499973 192.421849,272.968778 197.53125,267.34375 C202.640651,261.718722 207.96091,258.90625 213.492188,258.90625 C218.039085,258.90625 221.85936,260.863262 224.953125,264.777344 C228.04689,268.691426 229.59375,273.507784 229.59375,279.226562 C229.59375,283.304708 229.019537,286.79686 227.871094,289.703125 C226.722651,292.60939 224.976574,296.03123 222.632812,299.96875 C216.632783,309.9063 213.632812,319.023396 213.632812,327.320312 C213.632812,328.257817 213.679687,329.218745 213.773438,330.203125 L210.890625,330.203125 L211.03125,320.851562 C205.171846,324.695332 200.953138,326.617188 198.375,326.617188 C195.187484,326.617188 192.56251,325.644541 190.5,323.699219 C188.43749,321.753897 187.40625,319.210953 187.40625,316.070312 C187.40625,313.117173 188.941391,310.503918 192.011719,308.230469 C195.082047,305.95702 198.492169,304.820312 202.242188,304.820312 C204.914076,304.820312 209.179658,304.539065 215.039062,303.976562 C218.50783,296.42965 220.242188,289.703155 220.242188,283.796875 C220.242188,270.203057 217.125031,263.40625 210.890625,263.40625 C205.171846,263.40625 201.070325,265.246075 198.585938,268.925781 C196.10155,272.605487 194.859375,277.679655 194.859375,284.148438 C194.859375,285.929696 195.386713,287.453119 196.441406,288.71875 C197.496099,289.984381 198.796867,290.617188 200.34375,290.617188 C202.265635,290.617188 204.093741,289.726571 205.828125,287.945312 C207.562509,286.164054 208.429688,284.218761 208.429688,282.109375 C208.429688,280.937494 207.89063,279.917973 206.8125,279.050781 C205.73437,278.183589 204.539069,277.75 203.226562,277.75 C202.66406,277.75 202.160158,278.031247 201.714844,278.59375 C201.269529,279.156253 201.046875,279.742184 201.046875,280.351562 C201.046875,281.523443 201.539058,282.109375 202.523438,282.109375 C203.320316,282.109375 204.046872,281.921877 204.703125,281.546875 Z M214.054688,306.4375 C210.117168,306.671876 206.941418,306.988279 204.527344,307.386719 C202.113269,307.785158 200.167976,308.88671 198.691406,310.691406 C197.214836,312.496103 196.476562,314.382803 196.476562,316.351562 C196.476562,318.226572 196.980464,319.773431 197.988281,320.992188 C198.996099,322.210944 200.320304,322.820312 201.960938,322.820312 C204.820327,322.820312 208.031232,321.015643 211.59375,317.40625 L214.054688,306.4375 Z M279.65625,324.15625 C274.593725,325.515632 270.421891,326.195312 267.140625,326.195312 C259.312461,326.195312 252.703152,322.750034 247.3125,315.859375 C241.921848,308.968716 239.226562,300.929733 239.226562,291.742188 C239.226562,283.304645 242.50778,275.746127 249.070312,269.066406 C255.632845,262.386685 263.109333,259.046875 271.5,259.046875 C275.343769,259.046875 279.257793,260.253894 283.242188,262.667969 C287.226582,265.082043 289.21875,267.953108 289.21875,271.28125 C289.21875,274.093764 287.894544,276.78905 285.246094,279.367188 C282.597643,281.945325 279.773453,283.234375 276.773438,283.234375 C274.101549,283.234375 271.710948,282.519538 269.601562,281.089844 C267.492177,279.660149 266.4375,277.796886 266.4375,275.5 C266.4375,273.343739 267.117181,271.667975 268.476562,270.472656 C269.835944,269.277338 271.687488,268.679688 274.03125,268.679688 C275.390632,268.679688 276.621088,269.019528 277.722656,269.699219 C278.824224,270.37891 279.375,271.257807 279.375,272.335938 C279.375,272.992191 278.941411,273.660153 278.074219,274.339844 C277.207027,275.019535 276.398441,275.359375 275.648438,275.359375 L274.804688,275.359375 C275.27344,273.812492 275.507812,272.80469 275.507812,272.335938 C275.507812,271.164057 274.781257,270.578125 273.328125,270.578125 C272.484371,270.578125 271.746097,271.070308 271.113281,272.054688 C270.480466,273.039067 270.164062,274.023433 270.164062,275.007812 C270.164062,278.757831 271.89842,280.632812 275.367188,280.632812 C277.710949,280.632812 279.621086,279.777352 281.097656,278.066406 C282.574226,276.35546 283.3125,274.281262 283.3125,271.84375 C283.3125,268.937485 282.082044,266.464854 279.621094,264.425781 C277.160144,262.386709 274.406265,261.367188 271.359375,261.367188 C264.984343,261.367188 259.664084,264.671842 255.398438,271.28125 C251.132791,277.890658 249,284.8984 249,292.304688 C249,300.460978 250.664046,307.785124 253.992188,314.277344 C257.320329,320.769564 261.703098,324.015625 267.140625,324.015625 C271.406271,324.015625 274.570302,322.234393 276.632812,318.671875 L279.65625,324.15625 Z M332.390625,312.484375 C334.593761,312.484375 335.695312,313.539052 335.695312,315.648438 C335.695312,317.007819 335.097662,318.167964 333.902344,319.128906 C332.707025,320.089849 331.570318,320.570312 330.492188,320.570312 C329.132806,320.570312 327.738288,319.914069 326.308594,318.601562 C324.878899,317.289056 324.164062,315.671885 324.164062,313.75 C324.164062,311.078112 325.031241,308.980476 326.765625,307.457031 C328.500009,305.933586 330.656237,305.171875 333.234375,305.171875 C336.32814,305.171875 338.90624,306.261708 340.96875,308.441406 C343.03126,310.621105 344.0625,313.398421 344.0625,316.773438 C344.0625,320.757832 342.316424,323.921863 338.824219,326.265625 C335.332014,328.609387 331.500021,329.78125 327.328125,329.78125 C319.734337,329.78125 312.67972,326.628938 306.164062,320.324219 C299.648405,314.0195 296.390625,306.367233 296.390625,297.367188 C296.390625,288.88277 299.554656,281.17191 305.882812,274.234375 C312.210969,267.29684 318.937464,263.828125 326.0625,263.828125 C331.406277,263.828125 336.363258,265.597639 340.933594,269.136719 C345.503929,272.675799 347.789062,276.367168 347.789062,280.210938 C347.789062,284.992211 345.832051,288.906235 341.917969,291.953125 C338.003887,295.000015 333.09378,296.523438 327.1875,296.523438 C321.468721,296.523438 317.062515,295.72657 313.96875,294.132812 C310.874985,292.539055 309.328125,290.312514 309.328125,287.453125 C309.328125,284.874987 310.289053,282.765633 312.210938,281.125 C314.132822,279.484367 316.148427,278.664062 318.257812,278.664062 C320.132822,278.664062 321.832024,279.144526 323.355469,280.105469 C324.878914,281.066411 325.640625,282.203118 325.640625,283.515625 C325.640625,284.921882 325.113287,286.234369 324.058594,287.453125 C323.003901,288.671881 321.98438,289.28125 321,289.28125 C319.078115,289.28125 318.117188,288.625007 318.117188,287.3125 C320.320324,286.703122 321.421875,285.648445 321.421875,284.148438 C321.421875,282.976557 321.000004,282.050785 320.15625,281.371094 C319.312496,280.691403 318.304693,280.351562 317.132812,280.351562 C316.289058,280.351562 315.492191,281.042962 314.742188,282.425781 C313.992184,283.808601 313.617188,285.226555 313.617188,286.679688 C313.617188,288.742198 315.082017,290.511711 318.011719,291.988281 C320.941421,293.464851 324.492167,294.203125 328.664062,294.203125 C332.22658,294.203125 334.992178,293.125011 336.960938,290.96875 C338.929697,288.812489 339.914062,285.906268 339.914062,282.25 C339.914062,278.453106 338.484389,274.82033 335.625,271.351562 C332.765611,267.882795 329.250021,266.148438 325.078125,266.148438 C319.874974,266.148438 315.445331,269.066377 311.789062,274.902344 C308.132794,280.73831 306.304688,288.648388 306.304688,298.632812 C306.304688,306.882854 308.402323,313.703098 312.597656,319.09375 C316.79299,324.484402 321.960907,327.179688 328.101562,327.179688 C330.960952,327.179688 333.80858,326.183604 336.644531,324.191406 C339.480483,322.199209 340.898438,319.679703 340.898438,316.632812 C340.898438,314.570302 339.890635,312.812507 337.875,311.359375 C335.859365,309.906243 333.656262,309.179688 331.265625,309.179688 C329.953118,309.179688 328.82813,309.601558 327.890625,310.445312 C326.95312,311.289067 326.484375,312.296869 326.484375,313.46875 C326.484375,315.484385 327.679676,316.492188 330.070312,316.492188 C330.773441,316.492188 331.335935,316.058598 331.757812,315.191406 C332.17969,314.324214 332.390625,313.42188 332.390625,312.484375 Z" id="Free-Space" fill="#979797"></path>
        <path d="M199.818584,181.164823 L205.077102,175.906305 C211.618842,169.364565 222.225098,169.364565 228.766839,175.906305 C235.308579,182.448045 235.308579,193.054302 228.766839,199.596042 L199.961584,228.401296 L199.85456,228.294272 L199.711559,228.437272 L170.906305,199.632017 C164.364565,193.090277 164.364565,182.484021 170.906305,175.942281 C177.448045,169.400541 188.054302,169.400541 194.596042,175.942281 L199.818584,181.164823 Z" id="Combined-Shape-Copy-6" stroke="#D0021B" stroke-width="8" fill="#D0021B"></path>
    </g>
</svg>