<?xml version="1.0" encoding="UTF-8"?>
<svg width="400px" height="400px" viewBox="0 0 400 400" version="1.1" xmlns="http://www.w3.org/2000/svg" xmlns:xlink="http://www.w3.org/1999/xlink">
    <!-- Generator: Sketch 50.2 (55047) - http://www.bohemiancoding.com/sketch -->
    <title>happy-v-day</title>
    <desc>Created with Sketch.</desc>
    <defs></defs>
    <g id="happy-v-day" stroke="none" stroke-width="1" fill="none" fill-rule="evenodd">
        <g id="Group" transform="translate(30.000000, 74.000000)">
            <path d="M84.548,63.36 L105.028,63.36 L105.028,53.952 C105.028,50.751984 103.940011,49.152 101.764,49.152 C101.507999,49.152 101.049337,49.2159994 100.388,49.344 C99.7266634,49.4720006 99.1613357,49.536 98.692,49.536 C97.3266598,49.536 96.644,48.832007 96.644,47.424 C96.644,45.8879923 97.5613242,45.12 99.396,45.12 C99.9933363,45.12 101.081325,45.2479987 102.66,45.504 C104.238675,45.7600013 105.689327,45.888 107.012,45.888 C109.145344,45.888 111.278656,45.7386682 113.412,45.44 C114.64934,45.2693325 115.459998,45.184 115.844,45.184 C117.721343,45.184 118.66,45.9306592 118.66,47.424 C118.66,48.7893402 117.998673,49.472 116.676,49.472 C116.334665,49.472 115.82267,49.4186672 115.14,49.312 C114.45733,49.2053328 113.945335,49.152 113.604,49.152 C111.427989,49.152 110.34,50.751984 110.34,53.952 L110.34,79.488 C110.34,82.688016 111.406656,84.288 113.54,84.288 C113.881335,84.288 114.403996,84.2346672 115.108,84.128 C115.812004,84.0213328 116.334665,83.968 116.676,83.968 C117.998673,83.968 118.66,84.6506598 118.66,86.016 C118.66,87.5520077 117.721343,88.32 115.844,88.32 C115.459998,88.32 114.628006,88.1920013 113.348,87.936 C111.854659,87.6373318 110.233342,87.488 108.484,87.488 C106.137322,87.488 104.153341,87.6159987 102.532,87.872 C100.654657,88.1706682 99.6306675,88.32 99.46,88.32 C97.5826573,88.32 96.644,87.5520077 96.644,86.016 C96.644,84.607993 97.3266598,83.904 98.692,83.904 C99.033335,83.904 99.5453299,83.9573328 100.228,84.064 C100.91067,84.1706672 101.422665,84.224 101.764,84.224 C103.556009,84.224 104.622665,83.0506784 104.964,80.704 C105.006667,80.4053318 105.028,78.485351 105.028,74.944 L105.028,67.712 L84.548,67.712 L84.548,75.008 C84.548,78.549351 84.5693331,80.4693318 84.612,80.768 C84.953335,83.1146784 86.019991,84.288 87.812,84.288 C88.153335,84.288 88.6759965,84.2346672 89.38,84.128 C90.0840035,84.0213328 90.606665,83.968 90.948,83.968 C92.2706733,83.968 92.932,84.6506598 92.932,86.016 C92.932,87.5520077 91.9933427,88.32 90.116,88.32 C89.8173318,88.32 88.9000077,88.1920013 87.364,87.936 C85.3159898,87.594665 83.5240077,87.424 81.988,87.424 C80.195991,87.424 78.2760102,87.594665 76.228,87.936 L74.692,88.192 C74.1799974,88.2773338 73.9026669,88.32 73.86,88.32 C71.8973235,88.32 70.916,87.5520077 70.916,86.016 C70.916,85.4613306 71.1186646,84.9706688 71.524,84.544 C71.9293354,84.1173312 72.4093306,83.904 72.964,83.904 C73.3480019,83.904 73.9239962,83.9679994 74.692,84.096 C75.1613357,84.2240006 75.6093312,84.288 76.036,84.288 C78.2120109,84.288 79.3,82.688016 79.3,79.488 L79.3,53.824 C79.3,50.623984 78.2120109,49.024 76.036,49.024 C75.7373318,49.024 75.2680032,49.0879994 74.628,49.216 C73.9879968,49.3440006 73.4333357,49.408 72.964,49.408 C72.4093306,49.408 71.9293354,49.1946688 71.524,48.768 C71.1186646,48.3413312 70.916,47.8506694 70.916,47.296 C70.916,45.8026592 71.8973235,45.056 73.86,45.056 C74.2440019,45.056 75.0333274,45.1626656 76.228,45.376 C77.8493414,45.6746682 79.8333216,45.824 82.18,45.824 C83.0760045,45.824 84.4093245,45.6960013 86.18,45.44 C87.9506755,45.1839987 89.2626624,45.056 90.116,45.056 C91.9933427,45.056 92.932,45.8239923 92.932,47.36 C92.932,47.9573363 92.7400019,48.4586646 92.356,48.864 C91.9719981,49.2693354 91.5026694,49.472 90.948,49.472 C90.4786643,49.472 89.9026701,49.4080006 89.22,49.28 C88.5373299,49.1519994 88.0680013,49.088 87.812,49.088 C85.7213229,49.088 84.6546669,50.687984 84.612,53.888 L84.548,63.36 Z M149.892,88.832 C146.393316,88.832 144.238671,87.3173485 143.428,84.288 C141.251989,87.488016 137.83869,89.088 133.188,89.088 C129.731983,89.088 126.969344,88.2346752 124.9,86.528 C122.830656,84.8213248 121.796,82.538681 121.796,79.68 C121.796,76.138649 123.310652,73.5360083 126.34,71.872 C127.492006,71.2319968 128.483996,70.816001 129.316,70.624 C130.148004,70.431999 131.822654,70.1866682 134.34,69.888 C137.924018,69.5039981 140.259995,68.9706701 141.348,68.288 C142.436005,67.6053299 142.98,66.3466758 142.98,64.512 C142.98,62.7626579 142.372006,61.3866717 141.156,60.384 C139.939994,59.3813283 138.244011,58.88 136.068,58.88 C134.14799,58.88 132.356008,59.413328 130.692,60.48 C130.051997,60.9066688 129.732,61.3546643 129.732,61.824 C129.732,61.9946675 129.923998,62.2079987 130.308,62.464 C130.905336,62.8906688 131.204,63.6159949 131.204,64.64 C131.204,65.4933376 130.89467,66.1973306 130.276,66.752 C129.65733,67.3066694 128.878671,67.584 127.94,67.584 C126.830661,67.584 125.90267,67.2000038 125.156,66.432 C124.40933,65.6639962 124.036,64.7253389 124.036,63.616 C124.036,61.2266547 125.219988,59.1786752 127.588,57.472 C129.956012,55.7653248 132.825316,54.912 136.196,54.912 C143.961372,54.912 147.844,58.645296 147.844,66.112 L147.844,79.04 C147.844,81.0880102 147.886666,82.3039981 147.972,82.688 C148.228001,84.1813408 148.953327,84.928 150.148,84.928 C151.641341,84.928 152.388,83.5626803 152.388,80.832 L152.388,77.696 C152.388,76.3306598 153.049327,75.648 154.372,75.648 C155.780007,75.648 156.484,76.6719898 156.484,78.72 L156.484,79.04 L156.42,82.688 C156.334666,86.7840205 154.158688,88.832 149.892,88.832 Z M142.788,76.096 L142.852,71.552 C141.913329,72.4053376 140.921339,73.002665 139.876,73.344 C138.830661,73.685335 136.964013,73.9839987 134.276,74.24 C129.411976,74.7093357 126.98,76.5013178 126.98,79.616 C126.98,81.2373414 127.566661,82.5173286 128.74,83.456 C129.913339,84.3946714 131.502657,84.864 133.508,84.864 C136.366681,84.864 138.617325,84.0853411 140.26,82.528 C141.902675,80.9706589 142.745333,78.8266803 142.788,76.096 Z M168.196,57.856 L168.196,59.904 C170.585345,56.5759834 173.849313,54.912 177.988,54.912 C182.254688,54.912 185.646654,56.3839853 188.164,59.328 C190.681346,62.2720147 191.94,66.2613082 191.94,71.296 C191.94,76.7146938 190.60668,81.0346506 187.94,84.256 C185.27332,87.4773494 181.700022,89.088 177.22,89.088 C173.507981,89.088 170.500012,87.7866797 168.196,85.184 L168.196,90.496 C168.196,92.1173414 168.238666,93.1626643 168.324,93.632 C168.580001,94.9546733 169.198662,95.616 170.18,95.616 C170.478668,95.616 170.926664,95.5520006 171.524,95.424 C172.121336,95.2959994 172.569332,95.232 172.868,95.232 C174.23334,95.232 174.916,95.935993 174.916,97.344 C174.916,98.752007 174.020009,99.456 172.228,99.456 C171.587997,99.456 170.628006,99.3706675 169.348,99.2 C168.409329,99.0719994 167.001343,99.008 165.124,99.008 C164.099995,99.008 163.24667,99.0506662 162.564,99.136 C160.857325,99.3493344 159.726669,99.456 159.172,99.456 C158.446663,99.456 157.828003,99.2320022 157.316,98.784 C156.803997,98.3359978 156.548,97.8133363 156.548,97.216 C156.548,95.8506598 157.273326,95.168 158.724,95.168 C158.980001,95.168 159.385331,95.2319994 159.94,95.36 C160.665337,95.5306675 161.198665,95.616 161.54,95.616 C162.350671,95.616 162.851999,95.2000042 163.044,94.368 C163.236001,93.5359958 163.353333,91.2213523 163.396,87.424 L163.46,62.72 C163.417333,60.7573235 162.862672,59.776 161.796,59.776 C161.497332,59.776 161.03867,59.8506659 160.42,60 C159.80133,60.1493341 159.321335,60.224 158.98,60.224 C157.401325,60.224 156.612,59.520007 156.612,58.112 C156.612,56.7466598 157.550657,56.064 159.428,56.064 C159.897336,56.064 160.409331,56.0853331 160.964,56.128 C162.030672,56.2133338 162.819997,56.256 163.332,56.256 C163.716002,56.256 164.270663,56.2240003 164.996,56.16 C165.721337,56.0959997 166.254665,56.064 166.596,56.064 C167.662672,56.064 168.196,56.6613274 168.196,57.856 Z M169.156,65.664 C168.771998,67.3280083 168.558667,69.3546547 168.516,71.744 C168.516,71.9146675 168.494667,72.2346643 168.452,72.704 L168.452,73.6 C168.452,76.458681 168.686664,78.5386602 169.156,79.84 C169.625336,81.1413398 170.553326,82.3039949 171.94,83.328 C173.326674,84.3520051 175.04399,84.864 177.092,84.864 C180.164015,84.864 182.542658,83.7440112 184.228,81.504 C185.913342,79.2639888 186.756,76.0746874 186.756,71.936 C186.756,63.402624 183.726697,59.136 177.668,59.136 C175.61999,59.136 173.796008,59.7546605 172.196,60.992 C170.595992,62.2293395 169.582669,63.7866573 169.156,65.664 Z M206.596,57.856 L206.596,59.904 C208.985345,56.5759834 212.249313,54.912 216.388,54.912 C220.654688,54.912 224.046654,56.3839853 226.564,59.328 C229.081346,62.2720147 230.34,66.2613082 230.34,71.296 C230.34,76.7146938 229.00668,81.0346506 226.34,84.256 C223.67332,87.4773494 220.100022,89.088 215.62,89.088 C211.907981,89.088 208.900012,87.7866797 206.596,85.184 L206.596,90.496 C206.596,92.1173414 206.638666,93.1626643 206.724,93.632 C206.980001,94.9546733 207.598662,95.616 208.58,95.616 C208.878668,95.616 209.326664,95.5520006 209.924,95.424 C210.521336,95.2959994 210.969332,95.232 211.268,95.232 C212.63334,95.232 213.316,95.935993 213.316,97.344 C213.316,98.752007 212.420009,99.456 210.628,99.456 C209.987997,99.456 209.028006,99.3706675 207.748,99.2 C206.809329,99.0719994 205.401343,99.008 203.524,99.008 C202.499995,99.008 201.64667,99.0506662 200.964,99.136 C199.257325,99.3493344 198.126669,99.456 197.572,99.456 C196.846663,99.456 196.228003,99.2320022 195.716,98.784 C195.203997,98.3359978 194.948,97.8133363 194.948,97.216 C194.948,95.8506598 195.673326,95.168 197.124,95.168 C197.380001,95.168 197.785331,95.2319994 198.34,95.36 C199.065337,95.5306675 199.598665,95.616 199.94,95.616 C200.750671,95.616 201.251999,95.2000042 201.444,94.368 C201.636001,93.5359958 201.753333,91.2213523 201.796,87.424 L201.86,62.72 C201.817333,60.7573235 201.262672,59.776 200.196,59.776 C199.897332,59.776 199.43867,59.8506659 198.82,60 C198.20133,60.1493341 197.721335,60.224 197.38,60.224 C195.801325,60.224 195.012,59.520007 195.012,58.112 C195.012,56.7466598 195.950657,56.064 197.828,56.064 C198.297336,56.064 198.809331,56.0853331 199.364,56.128 C200.430672,56.2133338 201.219997,56.256 201.732,56.256 C202.116002,56.256 202.670663,56.2240003 203.396,56.16 C204.121337,56.0959997 204.654665,56.064 204.996,56.064 C206.062672,56.064 206.596,56.6613274 206.596,57.856 Z M207.556,65.664 C207.171998,67.3280083 206.958667,69.3546547 206.916,71.744 C206.916,71.9146675 206.894667,72.2346643 206.852,72.704 L206.852,73.6 C206.852,76.458681 207.086664,78.5386602 207.556,79.84 C208.025336,81.1413398 208.953326,82.3039949 210.34,83.328 C211.726674,84.3520051 213.44399,84.864 215.492,84.864 C218.564015,84.864 220.942658,83.7440112 222.628,81.504 C224.313342,79.2639888 225.156,76.0746874 225.156,71.936 C225.156,63.402624 222.126697,59.136 216.068,59.136 C214.01999,59.136 212.196008,59.7546605 210.596,60.992 C208.995992,62.2293395 207.982669,63.7866573 207.556,65.664 Z M245.316,62.144 L252.676,83.776 L260.484,62.464 C260.697334,61.8666637 260.804,61.397335 260.804,61.056 C260.804,60.330663 260.313338,59.968 259.332,59.968 C258.819997,59.968 258.414668,60.0106662 258.116,60.096 C257.43333,60.1813338 256.985334,60.224 256.772,60.224 C255.363993,60.224 254.66,59.5413402 254.66,58.176 C254.66,56.7253261 255.577324,56 257.412,56 C257.668001,56 258.094664,56.0426662 258.692,56.128 L260.996,56.448 C261.593336,56.5333338 262.23333,56.576 262.916,56.576 C263.641337,56.576 264.707993,56.4906675 266.116,56.32 C267.524007,56.1493325 268.590663,56.064 269.316,56.064 C271.150676,56.064 272.068,56.767993 272.068,58.176 C272.068,59.5413402 271.364007,60.224 269.956,60.224 C269.529331,60.224 269.209334,60.1813338 268.996,60.096 C268.441331,59.9679994 268.057334,59.904 267.844,59.904 C267.033329,59.904 266.201338,60.9919891 265.348,63.168 L256.644,84.928 C254.72399,89.7493574 252.910675,93.2479891 251.204,95.424 C248.302652,99.1360186 244.676022,100.992 240.324,100.992 C237.72132,100.992 235.534676,100.330673 233.764,99.008 C231.993324,97.6853267 231.108,96.0853427 231.108,94.208 C231.108,92.8853267 231.491996,91.8080042 232.26,90.976 C233.028004,90.1439958 234.03066,89.728 235.268,89.728 C236.249338,89.728 237.059997,90.0159971 237.7,90.592 C238.340003,91.1680029 238.66,91.8826624 238.66,92.736 C238.66,94.1013402 238.04134,94.9759981 236.804,95.36 C237.444003,96.2986714 238.659991,96.768 240.452,96.768 C242.713345,96.768 244.750658,95.9253418 246.564,94.24 C248.377342,92.5546582 249.284,90.6666771 249.284,88.576 C249.284,87.509328 248.708006,85.5253478 247.556,82.624 L240.516,64.832 L239.748,62.784 C239.022663,60.8639904 238.190671,59.904 237.252,59.904 C236.995999,59.904 236.537337,59.9679994 235.876,60.096 C235.214663,60.2240006 234.777334,60.288 234.564,60.288 C233.070659,60.288 232.324,59.6053402 232.324,58.24 C232.324,56.7893261 233.305324,56.064 235.268,56.064 C235.908003,56.064 236.398665,56.0853331 236.74,56.128 L239.3,56.448 L239.812,56.448 C240.110668,56.4906669 240.366666,56.512 240.58,56.512 C242.116008,56.512 243.758658,56.4266675 245.508,56.256 C246.830673,56.1279994 247.705331,56.064 248.132,56.064 C249.924009,56.064 250.82,56.767993 250.82,58.176 C250.82,59.584007 250.009341,60.288 248.388,60.288 C248.131999,60.288 247.726669,60.2346672 247.172,60.128 C246.617331,60.0213328 246.212001,59.968 245.956,59.968 C245.358664,59.968 245.06,60.2666637 245.06,60.864 C245.06,61.205335 245.145332,61.6319974 245.316,62.144 Z M15.94,129.36 L24.964,156.688 L33.54,129.936 C34.1800032,127.88799 34.5,126.437338 34.5,125.584 C34.5,123.962659 33.6466752,123.152 31.94,123.152 C31.6413318,123.152 31.1720032,123.205333 30.532,123.312 C29.8919968,123.418667 29.4226682,123.472 29.124,123.472 C27.4599917,123.472 26.628,122.725341 26.628,121.232 C26.628,119.781326 27.4386586,119.056 29.06,119.056 C29.9560045,119.056 31.3106576,119.183999 33.124,119.44 C34.9373424,119.696001 36.3133286,119.824 37.252,119.824 C38.7880077,119.824 40.6866554,119.632002 42.948,119.248 C43.673337,119.119999 44.3559968,119.056 44.996,119.056 C46.5746746,119.056 47.364,119.802659 47.364,121.296 C47.364,122.746674 46.5746746,123.472 44.996,123.472 C44.9533331,123.472 44.8680006,123.450667 44.74,123.408 L43.268,123.28 L42.948,123.28 C42.222663,123.28 41.6360022,123.631996 41.188,124.336 C40.7399978,125.040004 40.1106707,126.565322 39.3,128.912 L28.804,159.696 C28.078663,161.786677 26.7346765,162.832 24.772,162.832 C22.7239898,162.832 21.337337,161.786677 20.612,159.696 L9.156,127.504 C8.60133056,125.925325 8.15333504,124.922669 7.812,124.496 C7.21466368,123.770663 6.2760064,123.408 4.996,123.408 C4.73999872,123.408 4.33466944,123.429333 3.78,123.472 C3.22533056,123.514667 2.82000128,123.536 2.564,123.536 C0.89999168,123.536 0.068,122.789341 0.068,121.296 C0.068,119.759992 0.9213248,118.992 2.628,118.992 C3.14000256,118.992 3.7159968,119.055999 4.356,119.184 C6.74534528,119.653336 8.85732416,119.888 10.692,119.888 C11.758672,119.888 13.3373229,119.749335 15.428,119.472 C17.5186771,119.194665 19.0759949,119.056 20.1,119.056 C21.6786746,119.056 22.468,119.759993 22.468,121.168 C22.468,122.704008 21.6573414,123.472 20.036,123.472 C19.9506662,123.472 19.7586682,123.450667 19.46,123.408 L18.82,123.408 C18.5639987,123.365333 18.2013357,123.344 17.732,123.344 C15.8546573,123.344 14.916,123.941327 14.916,125.136 C14.916,125.733336 15.0226656,126.37333 15.236,127.056 L15.94,129.36 Z M72.324,162.832 C68.8253158,162.832 66.6706707,161.317348 65.86,158.288 C63.6839891,161.488016 60.2706899,163.088 55.62,163.088 C52.1639827,163.088 49.4013437,162.234675 47.332,160.528 C45.2626563,158.821325 44.228,156.538681 44.228,153.68 C44.228,150.138649 45.7426515,147.536008 48.772,145.872 C49.9240058,145.231997 50.9159958,144.816001 51.748,144.624 C52.5800042,144.431999 54.2546541,144.186668 56.772,143.888 C60.3560179,143.503998 62.6919946,142.97067 63.78,142.288 C64.8680054,141.60533 65.412,140.346676 65.412,138.512 C65.412,136.762658 64.8040061,135.386672 63.588,134.384 C62.3719939,133.381328 60.6760109,132.88 58.5,132.88 C56.5799904,132.88 54.7880083,133.413328 53.124,134.48 C52.4839968,134.906669 52.164,135.354664 52.164,135.824 C52.164,135.994668 52.3559981,136.207999 52.74,136.464 C53.3373363,136.890669 53.636,137.615995 53.636,138.64 C53.636,139.493338 53.3266698,140.197331 52.708,140.752 C52.0893302,141.306669 51.3106714,141.584 50.372,141.584 C49.2626611,141.584 48.3346704,141.200004 47.588,140.432 C46.8413296,139.663996 46.468,138.725339 46.468,137.616 C46.468,135.226655 47.6519882,133.178675 50.02,131.472 C52.3880118,129.765325 55.2573165,128.912 58.628,128.912 C66.3933722,128.912 70.276,132.645296 70.276,140.112 L70.276,153.04 C70.276,155.08801 70.3186662,156.303998 70.404,156.688 C70.6600013,158.181341 71.3853274,158.928 72.58,158.928 C74.0733408,158.928 74.82,157.56268 74.82,154.832 L74.82,151.696 C74.82,150.33066 75.4813267,149.648 76.804,149.648 C78.212007,149.648 78.916,150.67199 78.916,152.72 L78.916,153.04 L78.852,156.688 C78.7666662,160.78402 76.590688,162.832 72.324,162.832 Z M65.22,150.096 L65.284,145.552 C64.3453286,146.405338 63.3533386,147.002665 62.308,147.344 C61.2626614,147.685335 59.3960134,147.983999 56.708,148.24 C51.8439757,148.709336 49.412,150.501318 49.412,153.616 C49.412,155.237341 49.9986608,156.517329 51.172,157.456 C52.3453392,158.394671 53.9346566,158.864 55.94,158.864 C58.798681,158.864 61.0493251,158.085341 62.692,156.528 C64.3346749,154.970659 65.1773331,152.82668 65.22,150.096 Z M90.884,135.248 L90.948,155.152 C90.9906669,157.328011 91.5666611,158.416 92.676,158.416 C92.9320013,158.416 93.4653293,158.309334 94.276,158.096 C94.7880026,158.010666 95.1293325,157.968 95.3,157.968 C96.708007,157.968 97.412,158.693326 97.412,160.144 C97.412,161.552007 96.5373421,162.256 94.788,162.256 C94.1053299,162.256 93.0173408,162.170668 91.524,162 C90.0306592,161.829332 88.8786707,161.744 88.068,161.744 C87.3853299,161.744 86.3613402,161.829332 84.996,162 C83.6306598,162.170668 82.6280032,162.256 81.988,162.256 L81.668,162.256 C79.875991,162.256 78.98,161.488008 78.98,159.952 C78.98,158.629327 79.7053261,157.968 81.156,157.968 L81.604,157.968 C81.8600013,158.010667 82.0519994,158.032 82.18,158.032 C83.246672,158.202668 83.8653325,158.288 84.036,158.288 C84.8040038,158.288 85.283999,157.957337 85.476,157.296 C85.668001,156.634663 85.7853331,154.917347 85.828,152.144 L85.892,147.664 L86.084,137.744 L86.02,126.352 C85.9773331,125.071994 85.9133338,124.218669 85.828,123.792 C85.5293318,122.810662 84.9320045,122.32 84.036,122.32 C83.9079994,122.32 83.3533382,122.405332 82.372,122.576 C81.9026643,122.661334 81.5186682,122.704 81.22,122.704 C79.7693261,122.704 79.044,122.02134 79.044,120.656 C79.044,119.247993 79.8973248,118.544 81.604,118.544 C82.0733357,118.544 82.478665,118.565333 82.82,118.608 L84.356,118.8 C85.0386701,118.885334 85.6146643,118.928 86.084,118.928 C86.5106688,118.928 87.1506624,118.853334 88.004,118.704 C88.8573376,118.554666 89.4973312,118.48 89.924,118.48 C90.9053382,118.48 91.396,119.09866 91.396,120.336 C91.396,120.762669 91.3746669,121.082666 91.332,121.296 C91.0333318,124.58135 90.884,129.23197 90.884,135.248 Z M129.732,143.184 C129.732,144.805341 129.625334,145.797332 129.412,146.16 C129.198666,146.522668 128.580005,146.704 127.556,146.704 L107.204,146.704 C106.649331,146.704 106.286668,146.778666 106.116,146.928 C105.945332,147.077334 105.86,147.322665 105.86,147.664 C105.86,150.864016 106.81999,153.530656 108.74,155.664 C110.66001,157.797344 113.049319,158.864 115.908,158.864 C117.785343,158.864 119.502659,158.352005 121.06,157.328 C122.617341,156.303995 123.630664,155.002675 124.1,153.424 L124.676,151.568 C124.974668,150.543995 125.678661,150.032 126.788,150.032 C128.366675,150.032 129.156,150.842659 129.156,152.464 C129.156,155.237347 127.748014,157.701323 124.932,159.856 C122.115986,162.010677 118.916018,163.088 115.332,163.088 C110.851978,163.088 107.289347,161.584015 104.644,158.576 C101.998653,155.567985 100.676,151.525359 100.676,146.448 C100.676,141.242641 102.083986,137.018683 104.9,133.776 C107.716014,130.533317 111.385311,128.912 115.908,128.912 C119.918687,128.912 123.22532,130.255987 125.828,132.944 C128.43068,135.632013 129.732,139.045313 129.732,143.184 Z M106.5,141.52 C106.5,142.117336 106.969329,142.416 107.908,142.416 L123.204,142.416 C124.100004,142.416 124.548,142.117336 124.548,141.52 C124.548,139.258655 123.694675,137.296008 121.988,135.632 C120.281325,133.967992 118.276012,133.136 115.972,133.136 C113.582655,133.136 111.406676,133.999991 109.444,135.728 C107.481324,137.456009 106.5,139.386656 106.5,141.52 Z M144.26,131.984 L144.26,133.776 C146.820013,130.533317 150.233312,128.912 154.5,128.912 C156.804012,128.912 158.97999,129.498661 161.028,130.672 C163.07601,131.845339 164.462663,133.306658 165.188,135.056 C165.785336,136.506674 166.084,138.405322 166.084,140.752 L166.084,152.912 C166.084,154.746676 166.105333,155.834665 166.148,156.176 C166.361334,157.626674 166.937329,158.352 167.876,158.352 C168.260002,158.352 168.76133,158.298667 169.38,158.192 C169.99867,158.085333 170.435999,158.032 170.692,158.032 C171.246669,158.032 171.726665,158.223998 172.132,158.608 C172.537335,158.992002 172.74,159.461331 172.74,160.016 C172.74,160.656003 172.484003,161.189331 171.972,161.616 C171.459997,162.042669 170.841337,162.256 170.116,162.256 C169.518664,162.256 168.53734,162.170668 167.172,162 C165.80666,161.829332 164.526673,161.744 163.332,161.744 C162.222661,161.744 161.305337,161.786666 160.58,161.872 C158.446656,162.128001 157.316001,162.256 157.188,162.256 C155.481325,162.256 154.628,161.509341 154.628,160.016 C154.628,158.693327 155.353326,158.032 156.804,158.032 C157.145335,158.032 157.529331,158.074666 157.956,158.16 C158.766671,158.330668 159.278666,158.416 159.492,158.416 C160.516005,158.416 161.070666,157.242678 161.156,154.896 L161.284,151.632 L161.348,147.728 L161.348,142.864 C161.348,140.602655 161.241334,139.045338 161.028,138.192 C160.643998,136.570659 159.812006,135.312004 158.532,134.416 C157.123993,133.434662 155.524009,132.944 153.732,132.944 C150.31865,132.944 147.865341,134.159988 146.372,136.592 C145.347995,138.256008 144.836,141.093313 144.836,145.104 L144.836,153.616 C144.836,155.493343 144.963999,156.77333 145.22,157.456 C145.476001,158.13867 145.94533,158.48 146.628,158.48 C146.969335,158.48 147.438664,158.394668 148.036,158.224 C148.633336,158.053332 149.123998,157.968 149.508,157.968 C150.830673,157.968 151.492,158.693326 151.492,160.144 C151.492,161.552007 150.638675,162.256 148.932,162.256 C148.590665,162.256 147.481343,162.128001 145.604,161.872 C144.665329,161.743999 143.620006,161.68 142.468,161.68 C141.571996,161.68 140.377341,161.765332 138.884,161.936 C137.006657,162.149334 135.940001,162.256 135.684,162.256 C133.891991,162.256 132.996,161.530674 132.996,160.08 C132.996,158.71466 133.67866,158.032 135.044,158.032 C135.257334,158.032 135.651997,158.095999 136.228,158.224 C136.804003,158.352001 137.369331,158.416 137.924,158.416 C139.204006,158.416 139.865333,157.178679 139.908,154.704 L140.036,147.6 L140.036,139.856 L139.908,137.616 C139.822666,136.165326 139.641335,135.173336 139.364,134.64 C139.086665,134.106664 138.60667,133.84 137.924,133.84 C137.625332,133.84 137.188003,133.893333 136.612,134 C136.035997,134.106667 135.598668,134.16 135.3,134.16 C133.763992,134.16 132.996,133.47734 132.996,132.112 C132.996,130.703993 133.95599,130 135.876,130 C136.132001,130 136.345332,130.021333 136.516,130.064 L138.884,130.32 C139.56667,130.32 140.163997,130.277334 140.676,130.192 C141.785339,130.106666 142.361333,130.064 142.404,130.064 C143.64134,130.064 144.26,130.703994 144.26,131.984 Z M192.836,153.168 L192.964,149.072 C193.006667,147.322658 193.774659,146.448 195.268,146.448 C196.761341,146.448 197.508,147.429324 197.508,149.392 C197.508,154.04269 196.910673,157.285324 195.716,159.12 C194.094659,161.594679 191.428019,162.832 187.716,162.832 C184.30265,162.832 181.870674,161.744011 180.42,159.568 C179.353328,157.989325 178.82,155.301352 178.82,151.504 L178.82,136.144 C178.82,135.247996 178.414671,134.8 177.604,134.8 L175.556,134.8 C174.87333,134.8 174.308002,134.576002 173.86,134.128 C173.411998,133.679998 173.188,133.136003 173.188,132.496 C173.188,131.898664 173.411998,131.365336 173.86,130.896 C174.308002,130.426664 174.809331,130.192 175.364,130.192 L177.86,130.192 C178.585337,130.192 178.948,129.786671 178.948,128.976 L178.948,122.384 C178.948,120.762659 179.779992,119.952 181.444,119.952 C182.980008,119.952 183.748,120.762659 183.748,122.384 L183.748,129.232 C183.748,129.872003 184.131996,130.192 184.9,130.192 L191.876,130.192 C193.497341,130.192 194.308,130.938659 194.308,132.432 C194.308,134.010675 193.433342,134.8 191.684,134.8 L184.644,134.8 C184.046664,134.8 183.748,135.247996 183.748,136.144 L183.748,151.888 C183.748,156.368022 185.219985,158.608 188.164,158.608 C191.150682,158.608 192.707999,156.794685 192.836,153.168 Z M211.204,143.44 L211.204,151.76 C211.204,153.893344 211.225333,155.151998 211.268,155.536 C211.481334,157.45601 212.057329,158.416 212.996,158.416 C213.209334,158.416 213.742662,158.309334 214.596,158.096 C214.809334,158.010666 215.129331,157.968 215.556,157.968 C217.177341,157.968 217.988,158.671993 217.988,160.08 C217.988,160.677336 217.721336,161.189331 217.188,161.616 C216.654664,162.042669 215.982671,162.256 215.172,162.256 C214.48933,162.256 213.454674,162.160001 212.068,161.968 C210.681326,161.775999 209.64667,161.68 208.964,161.68 C207.854661,161.68 206.61734,161.765332 205.252,161.936 C203.587992,162.149334 202.478669,162.256 201.924,162.256 C200.217325,162.256 199.364,161.530674 199.364,160.08 C199.364,158.671993 200.089326,157.968 201.54,157.968 C201.881335,157.968 202.382663,158.031999 203.044,158.16 C203.705337,158.288001 204.206665,158.352 204.548,158.352 C205.572005,158.352 206.190666,156.98668 206.404,154.256 L206.404,137.872 C206.190666,135.183987 205.550672,133.84 204.484,133.84 C204.142665,133.84 203.66267,133.914666 203.044,134.064 C202.42533,134.213334 201.966668,134.288 201.668,134.288 C200.131992,134.288 199.364,133.60534 199.364,132.24 C199.364,130.789326 200.302657,130.064 202.18,130.064 C202.990671,130.064 203.566665,130.085333 203.908,130.128 C205.27334,130.298668 206.147998,130.384 206.532,130.384 C206.873335,130.384 207.395996,130.330667 208.1,130.224 C208.804004,130.117333 209.326665,130.064 209.668,130.064 C210.90534,130.064 211.524,130.895992 211.524,132.56 C211.524,132.730668 211.502667,132.986665 211.46,133.328 C211.417333,133.669335 211.396,133.925332 211.396,134.096 C211.353333,134.437335 211.310667,135.759988 211.268,138.064 C211.225333,139.813342 211.204,141.605324 211.204,143.44 Z M207.876,126.672 C206.894662,126.672 206.052004,126.320004 205.348,125.616 C204.643996,124.911996 204.292,124.069338 204.292,123.088 C204.292,122.106662 204.643996,121.27467 205.348,120.592 C206.052004,119.90933 206.894662,119.568 207.876,119.568 C208.857338,119.568 209.699996,119.90933 210.404,120.592 C211.108004,121.27467 211.46,122.106662 211.46,123.088 C211.46,124.069338 211.108004,124.911996 210.404,125.616 C209.699996,126.320004 208.857338,126.672 207.876,126.672 Z M230.468,131.984 L230.468,133.776 C233.028013,130.533317 236.441312,128.912 240.708,128.912 C243.012012,128.912 245.18799,129.498661 247.236,130.672 C249.28401,131.845339 250.670663,133.306658 251.396,135.056 C251.993336,136.506674 252.292,138.405322 252.292,140.752 L252.292,152.912 C252.292,154.746676 252.313333,155.834665 252.356,156.176 C252.569334,157.626674 253.145329,158.352 254.084,158.352 C254.468002,158.352 254.96933,158.298667 255.588,158.192 C256.20667,158.085333 256.643999,158.032 256.9,158.032 C257.454669,158.032 257.934665,158.223998 258.34,158.608 C258.745335,158.992002 258.948,159.461331 258.948,160.016 C258.948,160.656003 258.692003,161.189331 258.18,161.616 C257.667997,162.042669 257.049337,162.256 256.324,162.256 C255.726664,162.256 254.74534,162.170668 253.38,162 C252.01466,161.829332 250.734673,161.744 249.54,161.744 C248.430661,161.744 247.513337,161.786666 246.788,161.872 C244.654656,162.128001 243.524001,162.256 243.396,162.256 C241.689325,162.256 240.836,161.509341 240.836,160.016 C240.836,158.693327 241.561326,158.032 243.012,158.032 C243.353335,158.032 243.737331,158.074666 244.164,158.16 C244.974671,158.330668 245.486666,158.416 245.7,158.416 C246.724005,158.416 247.278666,157.242678 247.364,154.896 L247.492,151.632 L247.556,147.728 L247.556,142.864 C247.556,140.602655 247.449334,139.045338 247.236,138.192 C246.851998,136.570659 246.020006,135.312004 244.74,134.416 C243.331993,133.434662 241.732009,132.944 239.94,132.944 C236.52665,132.944 234.073341,134.159988 232.58,136.592 C231.555995,138.256008 231.044,141.093313 231.044,145.104 L231.044,153.616 C231.044,155.493343 231.171999,156.77333 231.428,157.456 C231.684001,158.13867 232.15333,158.48 232.836,158.48 C233.177335,158.48 233.646664,158.394668 234.244,158.224 C234.841336,158.053332 235.331998,157.968 235.716,157.968 C237.038673,157.968 237.7,158.693326 237.7,160.144 C237.7,161.552007 236.846675,162.256 235.14,162.256 C234.798665,162.256 233.689343,162.128001 231.812,161.872 C230.873329,161.743999 229.828006,161.68 228.676,161.68 C227.779996,161.68 226.585341,161.765332 225.092,161.936 C223.214657,162.149334 222.148001,162.256 221.892,162.256 C220.099991,162.256 219.204,161.530674 219.204,160.08 C219.204,158.71466 219.88666,158.032 221.252,158.032 C221.465334,158.032 221.859997,158.095999 222.436,158.224 C223.012003,158.352001 223.577331,158.416 224.132,158.416 C225.412006,158.416 226.073333,157.178679 226.116,154.704 L226.244,147.6 L226.244,139.856 L226.116,137.616 C226.030666,136.165326 225.849335,135.173336 225.572,134.64 C225.294665,134.106664 224.81467,133.84 224.132,133.84 C223.833332,133.84 223.396003,133.893333 222.82,134 C222.243997,134.106667 221.806668,134.16 221.508,134.16 C219.971992,134.16 219.204,133.47734 219.204,132.112 C219.204,130.703993 220.16399,130 222.084,130 C222.340001,130 222.553332,130.021333 222.724,130.064 L225.092,130.32 C225.77467,130.32 226.371997,130.277334 226.884,130.192 C227.993339,130.106666 228.569333,130.064 228.612,130.064 C229.84934,130.064 230.468,130.703994 230.468,131.984 Z M290.5,143.184 C290.5,144.805341 290.393334,145.797332 290.18,146.16 C289.966666,146.522668 289.348005,146.704 288.324,146.704 L267.972,146.704 C267.417331,146.704 267.054668,146.778666 266.884,146.928 C266.713332,147.077334 266.628,147.322665 266.628,147.664 C266.628,150.864016 267.58799,153.530656 269.508,155.664 C271.42801,157.797344 273.817319,158.864 276.676,158.864 C278.553343,158.864 280.270659,158.352005 281.828,157.328 C283.385341,156.303995 284.398664,155.002675 284.868,153.424 L285.444,151.568 C285.742668,150.543995 286.446661,150.032 287.556,150.032 C289.134675,150.032 289.924,150.842659 289.924,152.464 C289.924,155.237347 288.516014,157.701323 285.7,159.856 C282.883986,162.010677 279.684018,163.088 276.1,163.088 C271.619978,163.088 268.057347,161.584015 265.412,158.576 C262.766653,155.567985 261.444,151.525359 261.444,146.448 C261.444,141.242641 262.851986,137.018683 265.668,133.776 C268.484014,130.533317 272.153311,128.912 276.676,128.912 C280.686687,128.912 283.99332,130.255987 286.596,132.944 C289.19868,135.632013 290.5,139.045313 290.5,143.184 Z M267.268,141.52 C267.268,142.117336 267.737329,142.416 268.676,142.416 L283.972,142.416 C284.868004,142.416 285.316,142.117336 285.316,141.52 C285.316,139.258655 284.462675,137.296008 282.756,135.632 C281.049325,133.967992 279.044012,133.136 276.74,133.136 C274.350655,133.136 272.174676,133.999991 270.212,135.728 C268.249324,137.456009 267.268,139.386656 267.268,141.52 Z M301.7,126.288 C301.7,125.60533 301.294671,125.242667 300.484,125.2 L299.204,125.136 C298.350662,125.093333 297.593337,124.69867 296.932,123.952 C296.270663,123.20533 295.94,122.320005 295.94,121.296 C295.94,120.101327 296.366662,119.098671 297.22,118.288 C298.073338,117.477329 299.139994,117.072 300.42,117.072 C301.870674,117.072 303.075995,117.658661 304.036,118.832 C304.996005,120.005339 305.476,121.509324 305.476,123.344 C305.476,126.885351 304.153347,130.383983 301.508,133.84 C300.483995,135.162673 299.63067,135.824 298.948,135.824 C298.094662,135.824 297.668,135.397338 297.668,134.544 C297.668,134.245332 297.923997,133.776003 298.436,133.136 C299.246671,132.069328 299.99333,130.832007 300.676,129.424 C301.35867,128.015993 301.7,126.97067 301.7,126.288 Z M325.124,128.912 C327.982681,128.912 330.37199,129.658659 332.292,131.152 L332.292,130.896 C332.292,129.317325 332.97466,128.528 334.34,128.528 C335.748007,128.528 336.452,129.21066 336.452,130.576 C336.452,130.832001 336.409334,131.471995 336.324,132.496 C336.153332,133.349338 336.068,134.202662 336.068,135.056 C336.068,135.568003 336.142666,136.314662 336.292,137.296 C336.441334,138.277338 336.516,139.023997 336.516,139.536 C336.516,141.157341 335.812007,141.968 334.404,141.968 C333.03866,141.968 332.334667,141.28534 332.292,139.92 L332.228,137.808 C332.185333,136.527994 331.44934,135.429338 330.02,134.512 C328.59066,133.594662 326.91601,133.136 324.996,133.136 C323.033324,133.136 321.390673,133.637328 320.068,134.64 C318.745327,135.642672 318.084,136.890659 318.084,138.384 C318.084,141.11468 319.961315,142.735997 323.716,143.248 L327.428,143.76 C334.68137,144.741338 338.308,147.749308 338.308,152.784 C338.308,155.856015 337.134678,158.341324 334.788,160.24 C332.441322,162.138676 329.369352,163.088 325.572,163.088 C322.030649,163.088 318.95868,162.085343 316.356,160.08 C316.398667,160.506669 316.42,160.911998 316.42,161.296 C316.42,162.832008 315.694674,163.6 314.244,163.6 C312.665325,163.6 311.876,162.725342 311.876,160.976 C311.876,161.274668 312.003999,160.165346 312.26,157.648 C312.345334,157.050664 312.388,156.453336 312.388,155.856 C312.388,154.831995 312.302668,153.872004 312.132,152.976 C311.961332,152.079996 311.876,151.376003 311.876,150.864 C311.876,149.370659 312.55866,148.624 313.924,148.624 C314.820004,148.624 315.385332,148.837331 315.62,149.264 C315.854668,149.690669 315.993333,150.821324 316.036,152.656 C316.078667,154.490676 317.038657,155.983994 318.916,157.136 C320.793343,158.288006 323.182652,158.864 326.084,158.864 C328.174677,158.864 329.90266,158.330672 331.268,157.264 C332.63334,156.197328 333.316,154.853341 333.316,153.232 C333.316,150.330652 331.012023,148.645336 326.404,148.176 C322.009311,147.706664 318.660012,146.842673 316.356,145.584 C314.051988,144.325327 312.9,142.117349 312.9,138.96 C312.9,135.973318 314.030655,133.552009 316.292,131.696 C318.553345,129.839991 321.497315,128.912 325.124,128.912 Z M120.132,201.824 C120.132,198.623984 119.044011,197.024 116.868,197.024 C116.483998,197.024 116.036003,197.066666 115.524,197.152 C114.755996,197.280001 114.180002,197.344 113.796,197.344 C112.473327,197.344 111.812,196.66134 111.812,195.296 C111.812,193.802659 112.77199,193.056 114.692,193.056 C114.905334,193.056 115.182665,193.077333 115.524,193.12 L118.916,193.568 C120.196006,193.738668 121.561326,193.824 123.012,193.824 C124.206673,193.824 125.401327,193.760001 126.596,193.632 L130.756,193.184 C131.566671,193.098666 132.633327,193.056 133.956,193.056 C137.838686,193.056 141.08132,193.610661 143.684,194.72 C147.09735,196.170674 149.79599,198.687982 151.78,202.272 C153.76401,205.856018 154.756,210.015976 154.756,214.752 C154.756,218.933354 153.966675,222.69865 152.388,226.048 C150.809325,229.39735 148.65468,231.861325 145.924,233.44 C142.63865,235.36001 138.67069,236.32 134.02,236.32 C133.081329,236.32 132.121338,236.277334 131.14,236.192 L126.724,235.808 C125.230659,235.679999 123.673341,235.616 122.052,235.616 C120.643993,235.616 119.492004,235.679999 118.596,235.808 L115.524,236.256 C115.438666,236.256 115.289334,236.277333 115.076,236.32 L114.564,236.32 C112.729324,236.32 111.812,235.573341 111.812,234.08 C111.812,233.482664 112.003998,232.981335 112.388,232.576 C112.772002,232.170665 113.241331,231.968 113.796,231.968 C114.265336,231.968 114.84133,232.031999 115.524,232.16 C115.822668,232.245334 116.270664,232.288 116.868,232.288 C119.044011,232.288 120.132,230.688016 120.132,227.488 L120.132,201.824 Z M125.508,201.184 L125.508,228.256 C125.508,230.218676 126.46799,231.413331 128.388,231.84 C129.028003,232.010668 130.819985,232.096 133.764,232.096 C138.884026,232.096 142.595988,230.709347 144.9,227.936 C147.673347,224.607983 149.06,220.213361 149.06,214.752 C149.06,210.485312 148.217342,206.869348 146.532,203.904 C144.846658,200.938652 142.532015,199.029338 139.588,198.176 C137.710657,197.621331 135.449347,197.344 132.804,197.344 C129.433316,197.344 127.37467,197.535998 126.628,197.92 C125.88133,198.304002 125.508,199.391991 125.508,201.184 Z M187.204,236.832 C183.705316,236.832 181.550671,235.317348 180.74,232.288 C178.563989,235.488016 175.15069,237.088 170.5,237.088 C167.043983,237.088 164.281344,236.234675 162.212,234.528 C160.142656,232.821325 159.108,230.538681 159.108,227.68 C159.108,224.138649 160.622652,221.536008 163.652,219.872 C164.804006,219.231997 165.795996,218.816001 166.628,218.624 C167.460004,218.431999 169.134654,218.186668 171.652,217.888 C175.236018,217.503998 177.571995,216.97067 178.66,216.288 C179.748005,215.60533 180.292,214.346676 180.292,212.512 C180.292,210.762658 179.684006,209.386672 178.468,208.384 C177.251994,207.381328 175.556011,206.88 173.38,206.88 C171.45999,206.88 169.668008,207.413328 168.004,208.48 C167.363997,208.906669 167.044,209.354664 167.044,209.824 C167.044,209.994668 167.235998,210.207999 167.62,210.464 C168.217336,210.890669 168.516,211.615995 168.516,212.64 C168.516,213.493338 168.20667,214.197331 167.588,214.752 C166.96933,215.306669 166.190671,215.584 165.252,215.584 C164.142661,215.584 163.21467,215.200004 162.468,214.432 C161.72133,213.663996 161.348,212.725339 161.348,211.616 C161.348,209.226655 162.531988,207.178675 164.9,205.472 C167.268012,203.765325 170.137316,202.912 173.508,202.912 C181.273372,202.912 185.156,206.645296 185.156,214.112 L185.156,227.04 C185.156,229.08801 185.198666,230.303998 185.284,230.688 C185.540001,232.181341 186.265327,232.928 187.46,232.928 C188.953341,232.928 189.7,231.56268 189.7,228.832 L189.7,225.696 C189.7,224.33066 190.361327,223.648 191.684,223.648 C193.092007,223.648 193.796,224.67199 193.796,226.72 L193.796,227.04 L193.732,230.688 C193.646666,234.78402 191.470688,236.832 187.204,236.832 Z M180.1,224.096 L180.164,219.552 C179.225329,220.405338 178.233339,221.002665 177.188,221.344 C176.142661,221.685335 174.276013,221.983999 171.588,222.24 C166.723976,222.709336 164.292,224.501318 164.292,227.616 C164.292,229.237341 164.878661,230.517329 166.052,231.456 C167.225339,232.394671 168.814657,232.864 170.82,232.864 C173.678681,232.864 175.929325,232.085341 177.572,230.528 C179.214675,228.970659 180.057333,226.82668 180.1,224.096 Z M204.484,210.144 L211.844,231.776 L219.652,210.464 C219.865334,209.866664 219.972,209.397335 219.972,209.056 C219.972,208.330663 219.481338,207.968 218.5,207.968 C217.987997,207.968 217.582668,208.010666 217.284,208.096 C216.60133,208.181334 216.153334,208.224 215.94,208.224 C214.531993,208.224 213.828,207.54134 213.828,206.176 C213.828,204.725326 214.745324,204 216.58,204 C216.836001,204 217.262664,204.042666 217.86,204.128 L220.164,204.448 C220.761336,204.533334 221.40133,204.576 222.084,204.576 C222.809337,204.576 223.875993,204.490668 225.284,204.32 C226.692007,204.149332 227.758663,204.064 228.484,204.064 C230.318676,204.064 231.236,204.767993 231.236,206.176 C231.236,207.54134 230.532007,208.224 229.124,208.224 C228.697331,208.224 228.377334,208.181334 228.164,208.096 C227.609331,207.967999 227.225334,207.904 227.012,207.904 C226.201329,207.904 225.369338,208.991989 224.516,211.168 L215.812,232.928 C213.89199,237.749357 212.078675,241.247989 210.372,243.424 C207.470652,247.136019 203.844022,248.992 199.492,248.992 C196.88932,248.992 194.702676,248.330673 192.932,247.008 C191.161324,245.685327 190.276,244.085343 190.276,242.208 C190.276,240.885327 190.659996,239.808004 191.428,238.976 C192.196004,238.143996 193.19866,237.728 194.436,237.728 C195.417338,237.728 196.227997,238.015997 196.868,238.592 C197.508003,239.168003 197.828,239.882662 197.828,240.736 C197.828,242.10134 197.20934,242.975998 195.972,243.36 C196.612003,244.298671 197.827991,244.768 199.62,244.768 C201.881345,244.768 203.918658,243.925342 205.732,242.24 C207.545342,240.554658 208.452,238.666677 208.452,236.576 C208.452,235.509328 207.876006,233.525348 206.724,230.624 L199.684,212.832 L198.916,210.784 C198.190663,208.86399 197.358671,207.904 196.42,207.904 C196.163999,207.904 195.705337,207.967999 195.044,208.096 C194.382663,208.224001 193.945334,208.288 193.732,208.288 C192.238659,208.288 191.492,207.60534 191.492,206.24 C191.492,204.789326 192.473324,204.064 194.436,204.064 C195.076003,204.064 195.566665,204.085333 195.908,204.128 L198.468,204.448 L198.98,204.448 C199.278668,204.490667 199.534666,204.512 199.748,204.512 C201.284008,204.512 202.926658,204.426668 204.676,204.256 C205.998673,204.127999 206.873331,204.064 207.3,204.064 C209.092009,204.064 209.988,204.767993 209.988,206.176 C209.988,207.584007 209.177341,208.288 207.556,208.288 C207.299999,208.288 206.894669,208.234667 206.34,208.128 C205.785331,208.021333 205.380001,207.968 205.124,207.968 C204.526664,207.968 204.228,208.266664 204.228,208.864 C204.228,209.205335 204.313332,209.631997 204.484,210.144 Z" id="Happy-Valentine’s-Da" fill="#D0021B"></path>
            <path d="M44.9212104,35.3865629 L47.7078072,32.5999661 C51.1744263,29.1333471 56.7949145,29.1333471 60.2615262,32.5999588 C63.728138,36.0665706 63.728138,41.6870588 60.2615262,45.1536706 L44.9969893,60.4182075 L44.9402747,60.3614928 L44.8644957,60.4372718 L29.5999588,45.1727349 C26.1333471,41.7061231 26.1333471,36.0856349 29.5999588,32.6190231 C33.0665706,29.1524113 38.6870588,29.1524113 42.1536706,32.6190231 L44.9212104,35.3865629 Z" id="Combined-Shape-Copy-8" stroke="#D0021B" stroke-width="8" fill="#F8B9B9"></path>
            <path d="M92.9212104,5.38656295 L95.7078072,2.59996611 C99.1744263,-0.866652943 104.794914,-0.866652943 108.261526,2.59995883 C111.728138,6.0665706 111.728138,11.6870588 108.261526,15.1536706 L92.9969893,30.4182075 L92.9402747,30.3614928 L92.8644957,30.4372718 L77.5999588,15.1727349 C74.1333471,11.7061231 74.1333471,6.08563489 77.5999588,2.61902312 C81.0665706,-0.847588653 86.6870588,-0.847588653 90.1536706,2.61902312 L92.9212104,5.38656295 Z" id="Combined-Shape-Copy-9" stroke="#D0021B" stroke-width="8" fill="#F8B9B9"></path>
            <path d="M282,195.98785 L287.166966,190.820885 C293.594812,184.393038 304.01641,184.393038 310.444257,190.820885 C316.872103,197.248731 316.872103,207.67033 310.444257,214.098176 L282.140511,242.401922 L282.035349,242.296761 L281.894839,242.437272 L253.591092,214.133525 C247.163246,207.705679 247.163246,197.284081 253.591092,190.856234 C260.018939,184.428388 270.440537,184.428388 276.868384,190.856234 L282,195.98785 Z" id="Combined-Shape-Copy-10" stroke="#D0021B" stroke-width="8" fill="#F8B9B9"></path>
        </g>
    </g>
</svg>