<?xml version="1.0" encoding="UTF-8"?>
<svg width="400px" height="400px" viewBox="0 0 400 400" version="1.1" xmlns="http://www.w3.org/2000/svg" xmlns:xlink="http://www.w3.org/1999/xlink">
    <!-- Generator: Sketch 50.2 (55047) - http://www.bohemiancoding.com/sketch -->
    <title>heart-with-bow</title>
    <desc>Created with Sketch.</desc>
    <defs></defs>
    <g id="heart-with-bow" stroke="none" stroke-width="1" fill="none" fill-rule="evenodd">
        <g id="Group-2" transform="translate(64.000000, 88.000000)">
            <path d="M135.85973,39.6329667 L156.362858,19.129839 C181.869309,-6.37661299 223.223439,-6.37661299 248.729891,19.129839 C274.236343,44.6362909 274.236343,85.9904203 248.729891,111.496872 L136.417292,223.809471 L136,223.392179 L135.442438,223.949741 L23.129839,111.637142 C-2.37661299,86.1306906 -2.37661299,44.7765611 23.129839,19.2701092 C48.6362909,-6.23634276 89.9904203,-6.23634276 115.496872,19.2701092 L135.85973,39.6329667 Z" id="Combined-Shape-Copy" stroke="#D0021B" stroke-width="8" fill="#F8B9B9"></path>
            <path d="M5,60 C3.34314575,60 2,61.3431458 2,63 L2,77 C2,81.418278 5.581722,85 10,85 L265,85 C267.761424,85 270,82.7614237 270,80 L270,63 C270,61.3431458 268.656854,60 267,60 L5,60 Z" id="Rectangle-2" stroke="#979797" stroke-width="4" fill="#D8E0EB"></path>
            <path d="M118.876215,75.3391526 L105.296043,156.658956 L129.92236,161.243837 L143.502532,79.9240335 L118.876215,75.3391526 Z" id="Rectangle-12" stroke="#979797" stroke-width="4" fill="#D8E0EB"></path>
            <path d="M148.076284,74.9267287 L134.496112,156.246532 L159.122429,160.831413 L172.702601,79.5116096 L148.076284,74.9267287 Z" id="Rectangle-12-Copy" stroke="#979797" stroke-width="4" fill="#D8E0EB" transform="translate(153.599356, 117.879071) rotate(-20.000000) translate(-153.599356, -117.879071) "></path>
            <g id="Group" transform="translate(57.000000, 41.000000)" stroke="#979797" stroke-width="4">
                <path d="M23.6940346,3.25435428 C11.8511494,-1.96028553 2,9.96934606 2,31.0931648 C2,52.2169835 11.8511494,64.1466151 23.6940346,58.9319753 L53.6940346,45.7224244 C60.1774507,42.8676573 66.2474278,39.6005725 70.7087959,36.6033207 C74.6505441,33.9551618 77,31.6347031 77,31.0931648 C77,30.5516265 74.6505441,28.2311678 70.7087959,25.5830089 C66.2474278,22.5857571 60.1774507,19.3186723 53.6940346,16.4639051 L23.6940346,3.25435428 Z" id="Rectangle-11" fill="#D8E0EB"></path>
                <path d="M67,30.5 L43.5,30.5" id="Line" stroke-linecap="square"></path>
            </g>
            <g id="Group-Copy" transform="translate(175.500000, 71.500000) rotate(180.000000) translate(-175.500000, -71.500000) translate(136.000000, 40.000000)" stroke="#979797" stroke-width="4">
                <path d="M23.6940346,3.25435428 C11.8511494,-1.96028553 2,9.96934606 2,31.0931648 C2,52.2169835 11.8511494,64.1466151 23.6940346,58.9319753 L53.6940346,45.7224244 C60.1774507,42.8676573 66.2474278,39.6005725 70.7087959,36.6033207 C74.6505441,33.9551618 77,31.6347031 77,31.0931648 C77,30.5516265 74.6505441,28.2311678 70.7087959,25.5830089 C66.2474278,22.5857571 60.1774507,19.3186723 53.6940346,16.4639051 L23.6940346,3.25435428 Z" id="Rectangle-11" fill="#D8E0EB"></path>
                <path d="M67,30.5 L43.5,30.5" id="Line" stroke-linecap="square"></path>
            </g>
            <rect id="Rectangle-10" stroke="#979797" stroke-width="4" fill="#D8E0EB" x="126" y="59" width="23" height="25" rx="5"></rect>
        </g>
    </g>
</svg>