<?xml version="1.0" encoding="UTF-8"?>
<svg width="400px" height="400px" viewBox="0 0 400 400" version="1.1" xmlns="http://www.w3.org/2000/svg" xmlns:xlink="http://www.w3.org/1999/xlink">
    <!-- Generator: Sketch 50.2 (55047) - http://www.bohemiancoding.com/sketch -->
    <title>i-love-you</title>
    <desc>Created with Sketch.</desc>
    <defs></defs>
    <g id="i-love-you" stroke="none" stroke-width="1" fill="none" fill-rule="evenodd">
        <g id="Group" transform="translate(71.000000, 84.000000)">
            <path d="M31.968,145.272 L48.528,193.944 L66.096,145.992 C66.5760024,144.647993 66.816,143.592004 66.816,142.824 C66.816,141.191992 65.712011,140.376 63.504,140.376 C62.3519942,140.376 61.4400034,140.471999 60.768,140.664 C59.2319923,140.856001 58.2240024,140.952 57.744,140.952 C54.5759842,140.952 52.992,139.416015 52.992,136.344 C52.992,133.079984 55.0559794,131.448 59.184,131.448 C59.7600029,131.448 60.7199933,131.543999 62.064,131.736 L67.248,132.456 C68.5920067,132.648001 70.0319923,132.744 71.568,132.744 C73.2000082,132.744 75.5999842,132.552002 78.768,132.168 C81.9360158,131.783998 84.3359918,131.592 85.968,131.592 C90.0960206,131.592 92.16,133.175984 92.16,136.344 C92.16,139.416015 90.5760158,140.952 87.408,140.952 C86.4479952,140.952 85.7280024,140.856001 85.248,140.664 C83.9999938,140.375999 83.1360024,140.232 82.656,140.232 C80.8319909,140.232 78.9600096,142.679976 77.04,147.576 L57.456,196.536 C53.1359784,207.384054 49.0560192,215.255976 45.216,220.152 C38.6879674,228.504042 30.528049,232.68 20.736,232.68 C14.8799707,232.68 9.96001992,231.192015 5.976,228.216 C1.99198008,225.239985 0,221.640021 0,217.416 C0,214.439985 0.86399136,212.016009 2.592,210.144 C4.32000864,208.271991 6.57598608,207.336 9.36,207.336 C11.568011,207.336 13.3919928,207.983994 14.832,209.28 C16.2720072,210.576006 16.992,212.18399 16.992,214.104 C16.992,217.176015 15.6000139,219.143996 12.816,220.008 C14.2560072,222.120011 16.9919798,223.176 21.024,223.176 C26.1120254,223.176 30.6959796,221.280019 34.776,217.488 C38.8560204,213.695981 40.896,209.448024 40.896,204.744 C40.896,202.343988 39.600013,197.880033 37.008,191.352 L21.168,151.32 L19.44,146.712 C17.8079918,142.391978 15.9360106,140.232 13.824,140.232 C13.2479971,140.232 12.2160074,140.375999 10.728,140.664 C9.23999256,140.952001 8.2560024,141.096 7.776,141.096 C4.4159832,141.096 2.736,139.560015 2.736,136.488 C2.736,133.223984 4.94397792,131.592 9.36,131.592 C10.8000072,131.592 11.9039962,131.64 12.672,131.736 L18.432,132.456 L19.584,132.456 C20.2560034,132.552 20.8319976,132.6 21.312,132.6 C24.7680173,132.6 28.4639803,132.408002 32.4,132.024 C35.3760149,131.735999 37.3439952,131.592 38.304,131.592 C42.3360202,131.592 44.352,133.175984 44.352,136.344 C44.352,139.512016 42.5280182,141.096 38.88,141.096 C38.3039971,141.096 37.3920062,140.976001 36.144,140.736 C34.8959938,140.495999 33.9840029,140.376 33.408,140.376 C32.0639933,140.376 31.392,141.047993 31.392,142.392 C31.392,143.160004 31.5839981,144.119994 31.968,145.272 Z M129.024,205.896 C118.94395,205.896 110.88003,202.416035 104.832,195.456 C98.7839698,188.495965 95.76,179.160059 95.76,167.448 C95.76,155.735941 98.8079695,146.400035 104.904,139.44 C111.00003,132.479965 119.183949,129 129.456,129 C139.920052,129 148.17597,132.407966 154.224,139.224 C160.27203,146.040034 163.296,155.303941 163.296,167.016 C163.296,178.728059 160.176031,188.135964 153.936,195.24 C147.695969,202.344036 139.392052,205.896 129.024,205.896 Z M129.744,138.504 C123.023966,138.504 117.744019,140.855976 113.904,145.56 C110.063981,150.264024 107.952002,156.935957 107.568,165.576 L107.568,167.448 C107.568,176.472045 109.463981,183.551974 113.256,188.688 C117.048019,193.824026 122.351966,196.392 129.168,196.392 C136.176035,196.392 141.67198,193.824026 145.656,188.688 C149.64002,183.551974 151.632,176.424046 151.632,167.304 C151.632,148.103904 144.336073,138.504 129.744,138.504 Z M233.28,199.848 L233.28,195.384 C228.191975,202.392035 220.65605,205.896 210.672,205.896 C199.343943,205.896 191.472022,202.392035 187.056,195.384 C185.13599,192.311985 184.080001,188.712021 183.888,184.584 C183.792,182.56799 183.744,178.344032 183.744,171.912 L183.744,159.96 C183.744,146.807934 182.352014,140.232 179.568,140.232 C178.991997,140.232 178.080006,140.351999 176.832,140.592 C175.583994,140.832001 174.624003,140.952 173.952,140.952 C170.591983,140.952 168.912,139.368016 168.912,136.2 C168.912,133.127985 170.975979,131.592 175.104,131.592 C176.064005,131.592 177.479991,131.687999 179.352,131.88 C181.224009,132.072001 182.639995,132.168 183.6,132.168 C184.464004,132.168 185.951989,132.024001 188.064,131.736 C189.504007,131.543999 190.319999,131.448 190.512,131.448 C193.488015,131.448 194.976,133.271982 194.976,136.92 L194.976,139.944 L194.832,149.304 L194.4,159.96 L194.4,169.32 C194.4,177.672042 195.071993,183.671982 196.416,187.32 C198.624011,193.36803 203.903958,196.392 212.256,196.392 C216.384021,196.392 220.031984,195.456009 223.2,193.584 C226.368016,191.711991 228.575994,189.240015 229.824,186.168 C231.360008,182.423981 232.128,175.320052 232.128,164.856 L232.128,147.576 C231.647998,142.967977 230.40001,140.664 228.384,140.664 C227.327995,140.664 226.464003,140.759999 225.792,140.952 L224.064,140.952 C220.703983,140.952 219.024,139.464015 219.024,136.488 C219.024,133.127983 220.895981,131.448 224.64,131.448 C225.504004,131.448 226.823991,131.543999 228.6,131.736 C230.376009,131.928001 231.695996,132.024 232.56,132.024 C233.328004,132.024 234.479992,131.952001 236.016,131.808 C237.552008,131.663999 238.703996,131.592 239.472,131.592 C242.352014,131.592 243.792,133.127985 243.792,136.2 C243.792,137.544007 243.696001,138.599996 243.504,139.368 C243.023998,143.016018 242.784,148.391964 242.784,155.496 L242.784,177.672 C242.784,183.528029 242.832,186.791997 242.928,187.464 C243.408002,192.552025 244.751989,195.096 246.96,195.096 C247.632003,195.096 248.591994,194.976001 249.84,194.736 C251.088006,194.495999 252.047997,194.376 252.72,194.376 C255.984016,194.376 257.616,195.959984 257.616,199.128 C257.616,202.392016 255.60002,204.024 251.568,204.024 C250.703996,204.024 249.456008,203.928001 247.824,203.736 C245.423988,203.447999 243.936003,203.304 243.36,203.304 C243.071999,203.304 242.064009,203.399999 240.336,203.592 C239.183994,203.880001 238.176004,204.024 237.312,204.024 C234.623987,204.024 233.28,202.632014 233.28,199.848 Z" id="you" fill="#979797"></path>
            <path d="M169,33.8188307 L176.148828,26.670003 C185.042165,17.7766657 199.461114,17.7766657 208.354451,26.670003 C217.247788,35.5633403 217.247788,49.982289 208.354451,58.8756263 L169.194405,98.035672 L169.048908,97.8901747 L168.854503,98.08458 L129.694457,58.9245343 C120.80112,50.031197 120.80112,35.6122483 129.694457,26.718911 C138.587794,17.8255737 153.006743,17.8255737 161.90008,26.718911 L169,33.8188307 Z" id="Combined-Shape-Copy-6" stroke="#D0021B" stroke-width="8" fill="#F8B9B9"></path>
            <path d="M69.64,53.712 L69.64,72.432 C69.64,77.232024 69.6879995,80.0639957 69.784,80.928 C70.2640024,85.2480216 71.5599894,87.408 73.672,87.408 C74.1520024,87.408 75.3519904,87.1680024 77.272,86.688 C77.7520024,86.495999 78.4719952,86.4 79.432,86.4 C83.0800182,86.4 84.904,87.9839842 84.904,91.152 C84.904,92.4960067 84.304006,93.6479952 83.104,94.608 C81.903994,95.5680048 80.3920091,96.048 78.568,96.048 C77.0319923,96.048 74.7040156,95.8320022 71.584,95.4 C68.4639844,94.9679978 66.1360077,94.752 64.6,94.752 C62.1039875,94.752 59.3200154,94.9439981 56.248,95.328 C52.5039813,95.8080024 50.0080062,96.048 48.76,96.048 C44.9199808,96.048 43,94.4160163 43,91.152 C43,87.9839842 44.6319837,86.4 47.896,86.4 C48.6640038,86.4 49.7919926,86.5439986 51.28,86.832 C52.7680074,87.1200014 53.8959962,87.264 54.664,87.264 C56.9680115,87.264 58.3599976,84.1920307 58.84,78.048 L58.84,41.184 C58.3599976,35.1359698 56.920012,32.112 54.52,32.112 C53.7519962,32.112 52.672007,32.2799983 51.28,32.616 C49.887993,32.9520017 48.8560034,33.12 48.184,33.12 C44.7279827,33.12 43,31.5840154 43,28.512 C43,25.2479837 45.1119789,23.616 49.336,23.616 C51.1600091,23.616 52.4559962,23.6639995 53.224,23.76 C56.2960154,24.1440019 58.2639957,24.336 59.128,24.336 C59.8960038,24.336 61.0719921,24.2160012 62.656,23.976 C64.2400079,23.7359988 65.4159962,23.616 66.184,23.616 C68.9680139,23.616 70.36,25.4879813 70.36,29.232 C70.36,29.6160019 70.3120005,30.1919962 70.216,30.96 C70.1199995,31.7280038 70.072,32.3039981 70.072,32.688 C69.9759995,33.4560038 69.8800005,36.4319741 69.784,41.616 C69.6879995,45.5520197 69.64,49.5839794 69.64,53.712 Z M62.152,15.984 C59.943989,15.984 58.0480079,15.1920079 56.464,13.608 C54.8799921,12.0239921 54.088,10.128011 54.088,7.92 C54.088,5.71198896 54.8799921,3.84000768 56.464,2.304 C58.0480079,0.76799232 59.943989,0 62.152,0 C64.360011,0 66.2559921,0.76799232 67.84,2.304 C69.4240079,3.84000768 70.216,5.71198896 70.216,7.92 C70.216,10.128011 69.4240079,12.0239921 67.84,13.608 C66.2559921,15.1920079 64.360011,15.984 62.152,15.984 Z" id="i" fill="#979797"></path>
        </g>
    </g>
</svg>