<?xml version="1.0" encoding="UTF-8"?>
<svg width="400px" height="400px" viewBox="0 0 400 400" version="1.1" xmlns="http://www.w3.org/2000/svg" xmlns:xlink="http://www.w3.org/1999/xlink">
    <!-- Generator: Sketch 50.2 (55047) - http://www.bohemiancoding.com/sketch -->
    <title>love</title>
    <desc>Created with Sketch.</desc>
    <defs></defs>
    <g id="love" stroke="none" stroke-width="1" fill="none" fill-rule="evenodd">
        <g id="Group" transform="translate(72.000000, 63.000000)">
            <path d="M181.396628,22.1947575 L191.819004,11.772382 C192.148602,11.4157548 192.486617,11.0640988 192.833048,10.7176682 C207.078676,-3.52795988 230.160428,-3.54293468 244.387583,10.6842211 C258.607969,24.9046068 258.599775,47.9711635 244.374463,62.2184142 L244.394806,62.2387569 L181.66701,124.966553 L181.47497,124.774513 L181.204588,125.044895 L118.476792,62.3170993 L118.497135,62.2967572 C104.271823,48.0495059 104.263629,24.9829492 118.484015,10.7625635 C132.711171,-3.46459225 155.792923,-3.44961745 170.038551,10.7960107 C170.384981,11.1424412 170.722996,11.4940973 171.052595,11.8507244 L181.396628,22.1947575 Z" id="Combined-Shape-Copy" stroke="#D0021B" stroke-width="8" fill="#F8B9B9"></path>
            <path d="M52.5710059,97.4482249 C52.5710059,104.721437 53.3106435,109.035989 54.7899408,110.392012 C55.8994138,111.501485 57.3478707,112.179486 59.135355,112.426036 C60.9228393,112.672585 64.9600277,112.795858 71.2470414,112.795858 L87.5192308,112.795858 C96.0251905,112.795858 101.695745,111.655583 104.531065,109.375 C107.366385,107.094417 108.784024,102.5025 108.784024,95.5991124 C108.784024,93.7499908 108.722387,91.5927145 108.599112,89.1272189 C108.352563,84.3195026 108.22929,81.4225888 108.22929,80.4363905 C108.22929,75.0123003 110.386566,72.3002959 114.701183,72.3002959 C119.878724,72.3002959 122.467456,74.7657544 122.467456,79.6967456 C122.467456,81.1760429 122.405819,82.3471357 122.282544,83.2100592 L120.988166,92.6405325 C120.618341,95.3525777 120.433432,98.187855 120.433432,101.14645 C120.433432,102.872297 120.587523,105.43021 120.89571,108.820266 C121.203897,112.210323 121.357988,114.768236 121.357988,116.494083 C121.357988,122.041448 118.214528,124.815089 111.927515,124.815089 C110.694767,124.815089 107.85949,124.691816 103.421598,124.445266 C100.463003,124.321991 95.9019046,124.198719 89.7381657,124.075444 L75.8698225,123.890533 L46.2840237,123.890533 C43.325429,123.890533 38.3945118,124.013805 31.4911243,124.260355 C30.504926,124.260355 28.8099233,124.383628 26.4060651,124.630178 C24.0022069,124.876727 22.1222947,125 20.7662722,125 C15.5887315,125 13,122.781087 13,118.343195 C13,114.398402 14.9107304,112.426036 18.7322485,112.426036 C19.7184467,112.426036 21.1977219,112.580127 23.1701183,112.888314 C25.1425148,113.196501 26.6217899,113.350592 27.6079882,113.350592 C33.8950018,113.350592 37.0384615,108.727857 37.0384615,99.4822485 L37.0384615,25.3328402 C37.0384615,16.2105067 33.8950018,11.6494083 27.6079882,11.6494083 C25.8821413,11.6494083 24.5877755,11.7726812 23.7248521,12.0192308 C21.7524556,12.3890551 20.0882711,12.5739645 18.7322485,12.5739645 C17.1296764,12.5739645 15.7736742,11.9884181 14.6642012,10.8173077 C13.5547282,9.6461973 13,8.19774038 13,6.47189349 C13,2.15727626 15.650368,0 20.9511834,0 C21.6908321,0 22.6153791,0.0616364645 23.7248521,0.184911243 L33.5251479,1.2943787 C38.9492382,1.91075259 42.9556084,2.21893491 45.5443787,2.21893491 C48.7495229,2.21893491 52.6942567,1.91075259 57.3786982,1.2943787 L65.8846154,0.184911243 C66.8708136,0.0616364645 67.6720876,0 68.2884615,0 C73.8358266,0 76.6094675,2.15727626 76.6094675,6.47189349 C76.6094675,8.19774038 76.0547393,9.6461973 74.9452663,10.8173077 C73.8357933,11.9884181 72.4797911,12.5739645 70.8772189,12.5739645 C69.6444712,12.5739645 67.9802866,12.3890551 65.8846154,12.0192308 C65.0216919,11.7726812 63.7273262,11.6494083 62.0014793,11.6494083 C55.7144656,11.6494083 52.5710059,16.2105067 52.5710059,25.3328402 L52.5710059,97.4482249 Z" id="L" fill="#D0021B"></path>
            <path d="M45.2554745,178.562044 L70.9854015,256.481752 L95.4379562,180.20438 C97.2627828,174.364934 98.1751825,170.228723 98.1751825,167.79562 C98.1751825,163.172726 95.7421168,160.861314 90.8759124,160.861314 C90.0243266,160.861314 88.6861405,161.01338 86.8613139,161.317518 C85.0364872,161.621656 83.6983011,161.773723 82.8467153,161.773723 C78.1021661,161.773723 75.729927,159.64479 75.729927,155.386861 C75.729927,151.250588 78.0413394,149.182482 82.6642336,149.182482 C85.2189909,149.182482 89.0814827,149.547442 94.2518248,150.277372 C99.422167,151.007303 103.345485,151.372263 106.021898,151.372263 C110.401482,151.372263 115.815053,150.824823 122.262774,149.729927 C124.330911,149.364962 126.277363,149.182482 128.10219,149.182482 C132.603429,149.182482 134.854015,151.311414 134.854015,155.569343 C134.854015,159.705617 132.603429,161.773723 128.10219,161.773723 C127.980535,161.773723 127.737228,161.712896 127.372263,161.591241 L123.175182,161.226277 L122.262774,161.226277 C120.194637,161.226277 118.521904,162.229917 117.244526,164.237226 C115.967147,166.244536 114.172761,170.593641 111.861314,177.284672 L81.9343066,265.058394 C79.8661697,271.019495 76.0340912,274 70.4379562,274 C64.5985109,274 60.6447792,271.019495 58.5766423,265.058394 L25.9124088,173.270073 C24.3308923,168.768834 23.0535328,165.909982 22.080292,164.693431 C20.3771204,162.625294 17.7007482,161.591241 14.0510949,161.591241 C13.3211642,161.591241 12.165458,161.652068 10.5839416,161.773723 C9.00242518,161.895378 7.84671898,161.956204 7.11678832,161.956204 C2.37223905,161.956204 0,159.827272 0,155.569343 C0,151.189759 2.43306569,149 7.29927007,149 C8.75913139,149 10.4014507,149.18248 12.2262774,149.547445 C19.0389635,150.885651 25.0608011,151.554745 30.2919708,151.554745 C33.3333485,151.554745 37.8345201,151.159371 43.7956204,150.368613 C49.7567208,149.577855 54.1970657,149.182482 57.1167883,149.182482 C61.6180274,149.182482 63.8686131,151.189761 63.8686131,155.20438 C63.8686131,159.583964 61.5572007,161.773723 56.9343066,161.773723 C56.6909964,161.773723 56.1435566,161.712896 55.2919708,161.591241 L53.4671533,161.591241 C52.7372226,161.469586 51.7031697,161.408759 50.3649635,161.408759 C45.0121387,161.408759 42.3357664,163.111905 42.3357664,166.518248 C42.3357664,168.22142 42.6398996,170.046219 43.2481752,171.992701 L45.2554745,178.562044 Z" id="V" fill="#D0021B"></path>
            <path d="M159.038462,174.33284 C159.038462,165.210507 155.895002,160.649408 149.607988,160.649408 C147.882141,160.649408 146.587776,160.772681 145.724852,161.019231 C143.752456,161.389055 142.088271,161.573964 140.732249,161.573964 C139.129676,161.573964 137.773674,160.988418 136.664201,159.817308 C135.554728,158.646197 135,157.19774 135,155.471893 C135,151.157276 137.588732,149 142.766272,149 C142.889547,149 143.814094,149.061636 145.539941,149.184911 C164.031158,150.417659 172.660263,151.034024 171.427515,151.034024 L173.276627,151.034024 L217.840237,149.739645 C218.70316,149.739645 221.908256,149.554736 227.455621,149.184911 C229.428018,149.061636 231.215475,149 232.818047,149 C239.228336,149 242.433432,151.835277 242.433432,157.505917 C242.433432,158.492115 242.186886,161.635575 241.693787,166.936391 C241.323963,170.881183 241.139053,174.517735 241.139053,177.846154 C241.139053,182.160771 241.262326,185.180958 241.508876,186.906805 C242.001975,190.481773 242.248521,193.132141 242.248521,194.857988 C242.248521,199.54243 240.029608,201.884615 235.591716,201.884615 C231.153824,201.884615 228.934911,198.617883 228.934911,192.08432 L228.934911,182.468935 C228.934911,172.113854 226.777635,166.011844 222.463018,164.162722 C219.257874,162.806699 210.998587,162.128698 197.684911,162.128698 C188.932402,162.128698 183.754939,162.313608 182.152367,162.683432 C176.851551,164.039455 174.201183,167.737642 174.201183,173.778107 L174.201183,186.16716 C174.077909,187.893007 174.016272,189.125736 174.016272,189.865385 L174.016272,192.269231 C174.016272,197.200222 175.125729,200.035499 177.344675,200.775148 C178.207598,201.021697 179.686873,201.14497 181.782544,201.14497 L189.363905,201.14497 C197.130216,201.14497 201.013314,198.494602 201.013314,193.193787 C201.013314,191.71449 200.828404,189.803759 200.45858,187.461538 C200.088756,185.119318 199.903846,183.023678 199.903846,181.174556 C199.903846,176.243565 202.122759,173.778107 206.560651,173.778107 C210.998543,173.778107 213.217456,176.428474 213.217456,181.72929 C213.217456,182.715488 212.786,186.536949 211.923077,193.193787 C211.183428,198.864427 210.813609,203.85698 210.813609,208.171598 C210.813609,210.637093 211.060155,215.013282 211.553254,221.300296 C211.676529,222.286494 211.984712,224.44377 212.477811,227.772189 C212.847635,230.484234 213.032544,232.641511 213.032544,234.244083 C213.032544,238.681975 210.813632,240.900888 206.37574,240.900888 C202.061122,240.900888 199.903846,238.312156 199.903846,233.134615 C199.903846,231.778593 200.057937,229.806226 200.366124,227.217456 C200.674311,224.628685 200.828402,222.656318 200.828402,221.300296 C200.828402,215.99948 197.315124,213.349112 190.288462,213.349112 L181.967456,213.349112 C178.392487,213.349112 176.204393,213.965477 175.403107,215.198225 C174.60182,216.430973 174.201183,219.081341 174.201183,223.149408 L174.201183,234.613905 C174.201183,236.586302 174.26282,239.23667 174.386095,242.565089 C174.509369,246.633156 174.571006,249.345161 174.571006,250.701183 C174.694281,255.632175 175.680464,258.713998 177.529586,259.946746 C178.885608,260.809669 182.090705,261.241124 187.14497,261.241124 L212.292899,261.241124 C219.566111,261.241124 224.558665,260.162486 227.27071,258.005178 C229.982755,255.847869 231.338757,251.81068 231.338757,245.893491 C231.338757,244.044369 231.246303,241.301547 231.061391,237.664941 C230.876478,234.028335 230.784024,231.285512 230.784024,229.436391 C230.784024,223.889026 233.002936,221.115385 237.440828,221.115385 C242.12527,221.115385 244.467456,223.950662 244.467456,229.621302 C244.467456,231.840248 244.344183,235.230253 244.097633,239.79142 C243.851084,244.352587 243.727811,247.742592 243.727811,249.961538 C243.727811,251.687385 243.820265,254.245299 244.005178,257.635355 C244.19009,261.025411 244.282544,263.583325 244.282544,265.309172 C244.282544,271.103086 241.447267,274 235.776627,274 C234.420605,274 232.263328,273.876727 229.304734,273.630178 C227.825436,273.506903 225.113432,273.445266 221.168639,273.445266 C222.031562,273.445266 217.223918,273.321993 206.745562,273.075444 C196.267206,272.828894 187.206646,272.705621 179.563609,272.705621 C167.97578,272.705621 156.634671,273.07544 145.539941,273.815089 C145.046842,273.815089 144.492114,273.876725 143.87574,274 L142.766272,274 C137.588732,274 135,271.781087 135,267.343195 C135,263.398402 136.91073,261.426036 140.732249,261.426036 C141.348622,261.426036 143.012807,261.549308 145.724852,261.795858 C147.080875,262.165682 148.37524,262.350592 149.607988,262.350592 C155.895002,262.350592 159.038462,257.727857 159.038462,248.482249 L159.038462,174.33284 Z" id="E" fill="#D0021B"></path>
        </g>
    </g>
</svg>