<?xml version="1.0" encoding="UTF-8"?>
<svg width="400px" height="400px" viewBox="0 0 400 400" version="1.1" xmlns="http://www.w3.org/2000/svg" xmlns:xlink="http://www.w3.org/1999/xlink">
    <!-- Generator: Sketch 50.2 (55047) - http://www.bohemiancoding.com/sketch -->
    <title>rose</title>
    <desc>Created with Sketch.</desc>
    <defs></defs>
    <g id="rose" stroke="none" stroke-width="1" fill="none" fill-rule="evenodd">
        <g id="Group" transform="translate(160.000000, 66.000000)">
            <path d="M40.5,118.5 L40.5,268.5" id="Line-8" stroke="#C2E99A" stroke-width="8" stroke-linecap="square"></path>
            <path d="M4,23 L4,79 C4,98.882251 20.117749,115 40,115 C59.882251,115 76,98.882251 76,79 L76,23 L4,23 Z" id="Rectangle-7" stroke="#D0021B" stroke-width="8" fill="#F8B9B9"></path>
            <ellipse id="Oval-9" stroke="#D0021B" stroke-width="8" fill="#F8B9B9" cx="40" cy="19.5" rx="36" ry="15.5"></ellipse>
            <path d="M40.5624736,24.9993144 C46.4978414,24.9732588 52.0281084,24.2057284 56.0762271,22.8998836 C57.9966894,22.2803796 59.4953683,21.5647872 60.4600472,20.829059 C61.2097949,20.2572517 61.5,19.7997689 61.5,19.5 C61.5,19.2002311 61.2097949,18.7427483 60.4600472,18.170941 C59.4953683,17.4352128 57.9966894,16.7196204 56.0762271,16.1001164 C51.9571528,14.7713827 46.3035166,14 40.25,14 C34.1964834,14 28.5428472,14.7713827 24.4237729,16.1001164 C22.5033106,16.7196204 21.0046317,17.4352128 20.0399528,18.170941 C19.9741407,18.2211336 19.9118695,18.2704454 19.8530245,18.318847 L40.5624736,24.9993144 Z" id="Oval-9-Copy" stroke="#D0021B" stroke-width="4"></path>
            <ellipse id="Oval-10" fill="#C2E99A" cx="59.5" cy="168.5" rx="19.5" ry="11.5"></ellipse>
            <ellipse id="Oval-10-Copy" fill="#C2E99A" cx="20.5" cy="193.5" rx="19.5" ry="11.5"></ellipse>
        </g>
    </g>
</svg>